<?xml version="1.0" encoding="UTF-8" standalone="no"?>
<svg
   xmlns:dc="http://purl.org/dc/elements/1.1/"
   xmlns:cc="http://creativecommons.org/ns#"
   xmlns:rdf="http://www.w3.org/1999/02/22-rdf-syntax-ns#"
   xmlns:svg="http://www.w3.org/2000/svg"
   xmlns="http://www.w3.org/2000/svg"
   xmlns:sodipodi="http://sodipodi.sourceforge.net/DTD/sodipodi-0.dtd"
   xmlns:inkscape="http://www.inkscape.org/namespaces/inkscape"
   viewBox="0 0 790.29901 1000"
   id="svg2"
   version="1.1"
   inkscape:version="0.91 r13725"
   sodipodi:docname="epic.svg"
   width="790.29901"
   height="1000">
  <metadata
     id="metadata10">
    <rdf:RDF>
      <cc:Work
         rdf:about="">
        <dc:format>image/svg+xml</dc:format>
        <dc:type
           rdf:resource="http://purl.org/dc/dcmitype/StillImage" />
        <dc:title></dc:title>
      </cc:Work>
    </rdf:RDF>
  </metadata>
  <defs
     id="defs8" />
  <sodipodi:namedview
     pagecolor="#ffffff"
     bordercolor="#666666"
     borderopacity="1"
     objecttolerance="10"
     gridtolerance="10"
     guidetolerance="10"
     inkscape:pageopacity="0"
     inkscape:pageshadow="2"
     inkscape:window-width="1920"
     inkscape:window-height="1016"
     id="namedview6"
     showgrid="false"
     inkscape:zoom="0.236"
     inkscape:cx="38.313559"
     inkscape:cy="500"
     inkscape:window-x="0"
     inkscape:window-y="27"
     inkscape:window-maximized="1"
     inkscape:current-layer="svg2" />
  <path
     d="m 432.83609,923.88086 q -1.49254,-2.23881 -16.41791,-3.73135 -19.403,-2.2388 -37.31345,-8.20895 l 0,6.71642 q 24.62687,12.68657 40.29852,12.68657 3.73135,0 5.97015,-0.74627 2.23882,-0.74626 7.4627,-0.74626 3.73134,0 0,-5.97016 z M 392.53755,7.4623816 393.28382,-3.1000944e-4 394.77636,8.2086501 l 0.74628,8.2089599 0,-6.716421 q 0,-12.6865759 1.49254,3.731345 1.49253,15.671652 8.95522,159.701596 l 9.7015,169.40308 14.17913,1.49254 q 87.31347,11.19404 155.22397,58.95526 70.89557,49.25377 107.46274,127.61202 26.11943,55.22392 31.34331,120.8956 l 0.74628,11.19404 6.7164,0.74627 q 10.44778,0.74626 32.83585,1.49253 26.11943,0.74627 26.11943,1.49254 0,0.74627 -32.83584,3.73135 l -32.83584,3.73135 -0.74628,14.92538 q -7.46269,123.1344 -91.7911,211.19416 -67.91049,70.89556 -157.46278,91.79109 -35.07466,8.20896 -80.59707,8.20896 -47.76122,0 -85.82095,-10.44776 Q 192.53743,958.20924 121.64187,854.47783 71.641826,781.34345 65.671686,688.05982 l -0.74627,-14.17911 -32.83584,-3.73135 Q 5.6152343e-6,667.16428 5.6152343e-6,666.41801 L 26.865696,664.92547 q 28.35822,-1.49253 32.83584,-1.49253 l 5.97015,-0.74627 0,-7.46269 q 7.4627,-73.88065 34.328384,-129.10456 31.34329,-64.17914 88.05976,-110.44783 76.11944,-61.94034 177.61205,-72.38811 l 8.95523,-0.74627 0.74626,-6.71641 q 0,-1.49254 8.20897,-164.17921 7.46269,-146.26875 8.95522,-164.1792084 z M 316.41812,633.58217 282.83601,566.41795 q -7.4627,-12.68658 15.67165,12.68658 10.44776,9.7015 18.65673,16.41792 11.19403,8.95522 11.9403,9.7015 2.23881,2.23881 6.71643,4.47761 l 1.49253,0.74627 0,-3.73134 q 0,-1.49254 -32.83584,-67.9105 l -14.17911,-29.10449 19.40299,18.65673 q 34.32838,48.50749 50.00003,48.50749 1.49254,0 1.49254,-0.74627 l 0.74627,-1.49253 5.22389,-85.07469 q 3.73134,-60.44779 3.73134,-80.59707 l 0,-1.49253 q -0.74627,-0.74627 -12.68657,0.74627 -79.8508,9.7015 -141.79114,66.41795 -62.6866,56.71645 -79.8508,133.58218 -2.2388,10.44776 -7.46268,46.26868 -0.74627,5.22388 2.2388,5.22388 l 14.92539,0 q 14.17911,0 65.67168,-2.98507 64.17914,-3.73136 83.58213,-3.73136 l 9.7015,-2.2388 q -3.73134,-3.73134 -33.58211,-15.67165 -12.68658,-5.22388 -15.67165,-6.71642 -7.4627,-3.73134 -11.94031,-7.4627 l 1.49254,0 19.40299,2.98509 17.16419,2.98507 q 5.22389,0.74627 34.3284,6.71642 z m 113.43291,-61.19407 2.2388,-0.74627 2.23881,-0.74627 q 2.2388,0 30.59703,-27.61195 l 34.32838,-33.58211 -17.16419,35.82092 q -26.8657,57.46271 -26.8657,62.68661 l 0,0.74626 0.74628,0 q 12.68658,-9.7015 50.00003,-41.79107 0,0.74627 -2.23882,4.47761 l -6.71641,11.19404 q -8.95524,14.92538 -9.7015,16.41792 -18.65672,28.35823 -18.65672,32.83584 l 0,1.49254 q 0.74626,0 40.29853,-6.71642 35.07465,-5.97016 40.29853,-5.97016 0,0.74628 -4.47762,2.23882 l -11.19403,4.47761 q -5.97016,3.73134 -15.67165,7.46269 -29.1045,11.19404 -32.83584,14.92538 -2.23882,2.23881 2.23879,2.23881 2.98509,0 6.71643,0.74626 2.98508,0 91.04483,3.73136 l 75.37318,2.98507 q 0.74627,0 0.74627,-2.98507 0,-8.95524 -5.97015,-39.55227 -14.92538,-75.37318 -70.89557,-132.08963 -55.22391,-55.97018 -131.34337,-73.13437 -23.13433,-5.22389 -28.35822,-5.22389 l -1.49254,0 q -3.73134,0 -4.47761,0.74627 l 0,1.49253 q 0,3.73136 3.73134,80.59707 3.73134,81.34333 7.4627,82.83587 z M 134.32845,727.61208 q 7.46269,36.56718 44.77615,98.50752 26.86568,44.02988 86.56721,77.61199 l 13.43285,7.46269 q 5.97016,0 8.95523,-76.11944 0.74627,-43.28362 1.49254,-48.5075 l 1.49254,-11.19404 14.17911,-13.43284 q 25.37314,-25.37315 44.77615,-53.73137 7.46269,-11.19404 9.70148,-12.31345 2.23881,-1.1194 13.43285,1.11941 12.68658,2.2388 23.13435,5.22389 14.92537,4.47761 14.92537,6.71641 0,2.23881 5.22389,12.68658 5.22388,10.44776 5.22388,17.16419 0,4.47761 -2.2388,6.71642 -2.23881,2.2388 -2.98508,1.49254 0,-2.23881 -4.10448,-10.07463 -4.10448,-7.83583 -4.10448,-12.31344 0,-3.73135 -0.74626,-4.47762 -0.74628,-0.74626 -5.22389,-1.49253 -4.47762,-0.74627 -18.65673,-5.22389 l -13.43285,-5.22388 -2.2388,2.98507 q -4.47761,5.97015 -7.4627,11.94031 -7.46269,12.68658 -17.16419,17.16419 -4.47761,2.2388 -2.2388,3.73134 6.71642,3.73134 22.38808,3.73134 5.22388,0 14.92537,-0.74626 l 19.403,-1.49254 6.71642,5.22389 q 5.22388,4.47761 11.94031,9.70149 5.97015,4.47761 8.58209,8.95524 2.61195,4.47761 0.37313,9.70149 l -2.2388,5.22389 -1.49254,-4.47762 q -1.49254,-6.71642 -15.67165,-14.17912 -6.71642,-3.73134 -31.3433,-4.47761 -20.89554,-0.74627 -31.34331,-2.98507 -12.68658,-2.98508 -14.92538,-2.23881 -2.23881,0.74627 -8.20896,8.95522 -6.71642,9.70151 -5.97016,10.44777 0.74628,0 5.2239,-2.98507 l 5.22388,-2.98507 7.46269,2.2388 q 12.68657,3.73134 30.59703,4.47761 l 22.38808,0.74627 21.6418,9.7015 21.64181,9.7015 0,11.94031 q 0,11.9403 -0.74627,11.9403 -0.74628,0 -5.97016,-4.47761 -5.22388,-4.47762 -3.73134,-7.46269 1.49254,-3.73135 1.49254,-4.47762 0,-4.47761 -42.53735,-8.20896 -35.82091,-2.98508 -45.52241,-6.71642 -8.20896,-2.98507 -11.19404,-0.74627 -1.49253,2.23881 -5.97016,10.07463 -4.47761,7.83583 -3.73134,8.5821 0.74627,0.74627 6.71643,-2.23881 11.9403,-5.22388 20.14926,-0.74627 4.47761,2.23881 4.47761,2.61194 0,0.37314 -16.41792,15.29852 l -16.41792,14.92538 0,10.44778 q 0,8.20895 -8.20895,41.04479 l -7.4627,29.85077 8.20897,2.98507 q 11.19403,4.47761 18.65672,5.97015 3.73135,0.74628 12.68658,3.73135 2.23881,0.74627 2.23881,-1.86567 0,-2.61195 5.97015,-6.34329 17.91046,-10.44776 31.34331,-22.38807 5.97014,-6.71643 8.58209,-6.71643 2.61194,0 19.02987,6.71643 18.65673,6.71642 28.35823,6.71642 l 2.2388,0 q 11.94029,0 17.16419,-5.22388 1.49254,-1.49254 -7.46269,-7.4627 -2.98508,-2.23881 -8.95524,-5.97015 -27.61195,-17.91046 -39.55226,-19.40299 -5.22388,-0.74627 -19.40299,5.22388 -11.19404,4.47761 -13.05971,5.97016 -1.86567,1.49253 -1.1194,3.73134 0.74626,5.97015 -6.71642,15.67165 l -4.47762,5.97015 0,-7.46269 q 0,-7.46269 0.74627,-17.91045 l 0.74626,-10.44777 24.62688,-12.68658 23.88062,-12.68658 6.71641,4.47762 q 4.47762,2.98508 16.41793,11.9403 33.5821,27.61196 41.79107,32.08957 l 6.71643,4.47763 2.23879,13.43283 q 2.23882,13.43285 3.73136,14.92538 0.74626,0.74627 16.41792,-5.22388 97.76126,-39.55226 142.5374,-130.59709 22.38808,-47.01496 26.86569,-100.74633 l 0.74627,-9.7015 -6.71642,1.49253 q -14.17911,0.74627 -90.29857,8.20897 l -2.2388,0 -1.49254,0.74627 -6.71643,0 -83.58214,9.70149 61.94034,41.04481 q 46.26869,34.32838 46.26869,35.82091 l 0,0.74627 q -1.49254,0 -5.97016,-2.98507 -7.46269,-5.22388 -41.0448,-20.89554 -14.17911,-6.71642 -23.13433,-11.19404 -16.41794,-7.46268 -21.64182,-10.44777 -10.44776,-4.47761 -11.19404,-5.22388 -11.94029,-5.22388 -22.01493,-16.41792 -10.07464,-11.19404 -10.82091,-11.19404 -0.74627,0 -0.74627,3.35822 0,3.35821 -3.73134,7.08955 l -3.73134,3.73135 -4.47761,-4.47761 q -5.22389,-3.73135 -5.22389,-8.95524 0,-5.22388 1.86567,-5.22388 1.86568,0 2.61195,-2.61194 0.74627,-2.61194 3.73134,-2.61194 5.22388,0 5.22388,-17.16419 l 0,-11.19404 -5.22388,-1.49254 q -8.20896,-1.49253 -8.20896,-5.22388 0,-1.49254 5.22389,-1.49254 4.47761,0 5.59701,-2.61194 1.1194,-2.61194 1.1194,-13.05972 0,-9.70149 -2.61194,-11.94029 -2.61194,-2.23881 -3.35821,-5.97016 0,-3.73135 -2.98507,-3.73135 -2.23882,0.74627 -2.61195,-1.86567 -0.37313,-2.61194 -0.37313,-16.79105 0,-19.403 -0.74627,-19.403 -2.23881,0 -48.5075,35.07465 l -24.62687,18.65672 0,10.44778 q 0,10.44776 -1.49254,11.19403 -2.2388,0.74626 -2.2388,8.95523 0,8.20897 1.49253,17.91046 1.49254,9.7015 -0.74627,14.92538 -1.49254,3.73134 -11.19404,14.92538 l -10.44777,11.94031 -36.56718,17.91046 -67.91049,31.3433 q 3.73134,-3.73134 48.50749,-35.07464 45.52242,-32.08958 47.76123,-33.58212 l 3.73134,-2.98508 -5.97015,-0.74627 q -20.14927,-2.2388 -97.76125,-9.70149 l -88.80603,-8.20896 q -2.23881,0.74626 -2.23881,5.97016 l 0,0.74626 q 0,10.44777 7.46269,41.0448 z M 409.70174,598.50752 q 3.73137,-2.98507 4.1045,-2.98507 0.37313,0 0.37313,30.59703 l 0,29.85077 -8.20897,0 0,-55.22392 z m -26.11941,20.14927 q 2.98508,-4.47762 2.98508,20.14927 l 0,17.16419 -13.43285,0 q -11.19404,0 -13.05971,-1.1194 -1.86567,-1.11941 -1.86567,-8.5821 0,-9.70151 14.92538,-20.14927 8.95523,-5.22389 10.44777,-7.46269 z m 20.89553,44.77615 6.71643,-0.74627 8.20896,0 0,20.89553 -4.47762,0 q -8.95523,0 -8.95523,-11.9403 0,-7.4627 -1.49254,-8.20896 z m -44.02988,15.67165 0,-7.46269 28.35823,0 0,20.14926 -3.73134,-0.74626 q -2.23881,-0.74627 -14.17912,-2.23881 l -10.44777,-1.49254 0,-8.20896 z m -2.98507,125.37321 q 8.95523,-2.2388 17.91045,-2.2388 l 8.20897,0 18.65673,13.43284 q 18.65672,13.43284 18.65672,14.17911 0,0.74626 -2.98507,2.23881 -2.98508,0.74627 -11.94031,-4.47762 -17.91046,-10.44776 -44.77615,-17.16419 l -14.1791,-3.73134 z"
     id="path4"
     inkscape:connector-curvature="0" />
</svg>
