<svg version="1" xmlns="http://www.w3.org/2000/svg" width="933.333" height="933.333" viewBox="0 0 700.000000 700.000000"><path d="M218 50.9c-8.9 2.8-17.6 10.1-23.1 19.7-2 3.2-6.1 12-9.3 19.4-7.7 17.9-11.6 24.9-18.5 33.4-3.2 3.9-7 9-8.6 11.4-2.7 4.1-2.8 4.5-2 12.5.5 4.5.8 10.4.8 13.2-.2 10.9-7.1 31.9-17.9 54.2-5.5 11.5-7.4 14.4-14.9 22.5-12.4 13.3-12.5 13.6-11.2 28.4 1 10.9 0 17.4-4.9 32.7-7.2 22.3-17.1 43.2-26.5 56.2-3.2 4.4-6.2 9.2-6.8 10.7-.6 1.7-.8 6.5-.4 12 .5 8.1.2 10.5-2 18.9-6.4 23.2-21.5 56.1-33.6 73.3-3.9 5.5-7.8 11.8-8.7 14.2-1.5 3.8-1.5 4.8-.1 11 1.4 5.9 1.4 8.1.1 19.3-.7 6.9-2.2 15.3-3.1 18.6-1.3 4.4-1.8 9.5-1.8 19.5.1 12.6.3 14.1 3.3 23 4.1 11.7 9.7 22.3 16.8 31.6 14.2 18.7 38 34.9 59.4 40.6l8.5 2.3h387l8-2.7c21.6-7.4 41.6-24.2 51-42.8 2.2-4.4 22-68 57.5-185.1 29.8-98.1 55.1-181.7 56.1-185.8 3.6-13.9 2.1-28.4-4.2-40.1-4.7-8.8-14.4-17.8-23.3-21.5l-3.4-1.4-.4 9.2c-.4 8.8-3.2 18.5-59.7 204.2C549.5 490.7 522 580.1 521 582.1c-3.6 7-12.3 13.2-23.1 16.3-5 1.5-23.4 1.6-197 1.3-212.5-.3-197.3.2-211.6-6.9-18.6-9.1-27-33.5-14-40.5 3-1.7 13.7-1.8 186.7-2.3l183.5-.6 8.4-2.2c19.8-5.3 28.1-14.1 39.5-42.2 5.7-13.7 4.3-9.4 65.7-212.3 56.1-185.3 55.3-182.4 53.7-197.2-1.7-15.3-14.3-33.1-28.1-39.8-12.1-5.9-5.5-5.7-172.7-5.7-130.8 0-154.5.3-160.4 1.5-6.1 1.3-7.9 1.3-15.4 0-9.1-1.6-14.3-1.8-18.2-.6zm26.9 138.6c.1 1.1-1.5 3.3-3.5 5-3.5 3-3.6 3.1-1.7 5.1 1.5 1.8 6.5 3 29.7 7.3l27.8 5.2 7.6-1.8 7.5-1.7 6 3.2c3.3 1.8 6.3 2.9 6.6 2.5 4.5-6.5 13.6-17.4 15.8-18.9 6.1-4.1 8.1-4.5 12.2-2.4 3.8 1.9 3.8 2 3.1 6.1-.6 3.3-2.2 5.5-7.9 11.3-6.8 6.8-7.1 7.4-7.1 11.9v4.7h6.1c5.7 0 6.4-.3 10.6-4 5.1-4.5 4.6-4.4 19.9-2.9l11.2 1.2 1.2 3.8c1.1 3.3 1.7 3.9 4.2 3.9 1.6 0 4.3-.8 6.1-1.7 1.8-1 5.7-2.7 8.7-3.9 5.3-2 5.6-2.3 7.6-8.1 3.4-9.7 10.5-18.1 16.6-19.4 2.4-.6 3.3-.2 5.3 2.6 3.3 4.2 3.3 9.6.1 13.8-1.3 1.8-2.8 4.6-3.4 6.4-1.3 4-1.3 4 12.3 4.8 6.7.4 19.9-.2 39.8-1.8 33.9-2.7 32.1-2.1 37.1-12.5 1.7-3.6 4-6.5 6.2-8l3.4-2.2 3.4 2.2c2.1 1.4 4.1 3.9 5.1 6.3 1.4 3.8 1.4 4.3-1.1 11.8-2.4 7.3-3 8.1-8.8 12.4-5.6 4.3-6.5 5.5-10.4 14.3-2.3 5.3-4.2 10.5-4.1 11.5.5 4.6 0 5.6-2.4 5-2.1-.6-2.5 0-4.7 6.9-1.8 5.9-2.8 7.6-4.2 7.6-2.9 0-3-2.1-.3-8.8 3-7.4 3-7.2.5-7.2-1.1 0-2-.5-2-1 0-1.1 3-4.3 5.3-5.6 1.6-.9 7.9-19.7 6.8-20.2-.4-.1-17.9 2.3-39 5.3-21.2 3-38.8 5.5-39.3 5.5-.4 0-2.1 2.7-3.8 6-2.5 4.9-3.1 7.4-3.3 13.6l-.2 7.5 35.5 15c36.4 15.3 35.9 15.2 44.1 13.3 2.4-.5 2.8-.1 4.8 4.9l2.3 5.6-5.7 12.9c-4.9 11.3-6 13.1-8.3 13.5-2.4.5-3.4 2.3-9.4 17.4-5.9 15-6.5 17-5.3 18.9 1.2 1.8 1.1 2.5-.6 5.3-1.6 2.6-2.3 3-3.4 2.1-1.1-.9-1.8.2-3.6 5.9-2 6.1-2.6 7.1-4.6 7.1-1.3 0-2.3-.1-2.3-.3 0-.2 1.1-3.2 2.5-6.7s2.5-6.6 2.5-6.8c0-.2-1.1-.1-2.5.2l-2.5.7 1.5-3.8c.9-2 1.7-3.8 1.8-3.9.1-.1 1.1-.6 2.3-1.2 1.5-.8 3.3-4.4 5.9-11.9 2.1-5.9 4.8-13.7 6.1-17.1l2.4-6.4-2.1-.5c-2.4-.7-2.3-.9 1.2-12.5 1.2-4.3 2.1-7.9 1.8-8.1-.2-.2-13.4-4.4-29.3-9.2l-28.9-8.7-1.8 2.3c-1.5 2-2.9 2.4-10.6 2.9-8.1.5-9.2.8-14.5 4.4l-5.7 3.8-7.8-.7c-6.3-.6-8.5-1.3-11.7-3.5-6.4-4.8-8.6-8.9-8.6-16.3 0-5-.4-6.6-1.6-7.1-3-1.1-5.3-.6-6.9 1.6-.8 1.3-13.6 14.8-28.3 30.1-14.6 15.3-27.5 29.3-28.6 31-1.7 2.8-28.9 29.2-33.6 32.5-1.5 1.1-4.2 1-15.5-.2-7.6-.8-13.9-1.7-14.1-1.9-1.1-1 14.8-25.7 29.9-46.4 9.7-13.4 17.7-24.5 17.7-24.8 0-.3-1.1-.3-2.4.1-3.5.8-10-2.8-11.6-6.5-.6-1.7-3.6-4.8-6.5-7.1l-5.2-4-21.4 2-21.4 2.1-10 9.9c-8.7 8.6-10.6 10-15 11.1-6.6 1.5-7.5 2.1-25.2 17.1-13 11-15.3 13.3-15.3 15.7 0 3.1-4 7.5-4.7 5.3-.8-2.1-2.3-1.4-8.4 3.9-5 4.3-6.2 4.9-7.5 3.8-1.3-1.1-.8-2 4-6.8 6-6 6.6-7.1 3.9-7.1-3.2 0 1.8-4 5.9-4.6 3.4-.6 5.8-2.7 20.6-18.1 14.4-15.1 16.9-18.2 18.3-22.6 1.3-4.2 3.1-6.5 9.2-12.3 6.3-5.9 8.5-7.4 12.4-8.2 2.7-.6 23.7-4.7 46.8-9.3 23.1-4.5 42.1-8.3 42.3-8.4.2-.1.5-1.8.8-3.7l.6-3.5-11.2-.7c-6.2-.3-11.7-.9-12.1-1.2-1.9-1.2-.7-6.2 2.7-11.2 2-3 3.4-5.5 3.2-5.7-.2-.1-16-5.9-35.3-12.8l-35-12.4-4.9 1.9c-2.7 1-6.8 3.3-9.1 4.9-2.3 1.7-4.9 2.9-5.8 2.7-1.9-.4-28.7 18.8-28.7 20.6 0 2.1-3.5 4.7-4.6 3.6-.7-.7-2.8.3-6.4 3-7.4 5.5-8.6 3.7-1.5-2.5 3.8-3.4 5.4-5.4 4.6-5.9-1.8-1.2-.2-2.6 3-2.6 3.9 0 30.6-19.9 32-23.8.6-1.5 4.2-5.2 8.2-8.2 4-3.1 10.9-8.5 15.5-12 8-6.2 8.5-6.4 15.5-6.9 7.6-.6 8.5-.2 8.6 4.4z"/></svg>