<?xml version="1.0" encoding="UTF-8" standalone="no"?>
<svg
   xmlns:dc="http://purl.org/dc/elements/1.1/"
   xmlns:cc="http://creativecommons.org/ns#"
   xmlns:rdf="http://www.w3.org/1999/02/22-rdf-syntax-ns#"
   xmlns:svg="http://www.w3.org/2000/svg"
   xmlns="http://www.w3.org/2000/svg"
   xmlns:sodipodi="http://sodipodi.sourceforge.net/DTD/sodipodi-0.dtd"
   xmlns:inkscape="http://www.inkscape.org/namespaces/inkscape"
   width="1792"
   height="1792"
   viewBox="0 0 1792 1792"
   id="svg4184"
   version="1.1"
   inkscape:version="0.91 r13725"
   sodipodi:docname="book.svg">
  <metadata
     id="metadata4192">
    <rdf:RDF>
      <cc:Work
         rdf:about="">
        <dc:format>image/svg+xml</dc:format>
        <dc:type
           rdf:resource="http://purl.org/dc/dcmitype/StillImage" />
        <dc:title></dc:title>
      </cc:Work>
    </rdf:RDF>
  </metadata>
  <defs
     id="defs4190" />
  <sodipodi:namedview
     pagecolor="#ffffff"
     bordercolor="#666666"
     borderopacity="1"
     objecttolerance="10"
     gridtolerance="10"
     guidetolerance="10"
     inkscape:pageopacity="0"
     inkscape:pageshadow="2"
     inkscape:window-width="1920"
     inkscape:window-height="1016"
     id="namedview4188"
     showgrid="false"
     showguides="true"
     inkscape:guide-bbox="true"
     inkscape:zoom="0.32632662"
     inkscape:cx="-176.33404"
     inkscape:cy="566.40646"
     inkscape:window-x="0"
     inkscape:window-y="27"
     inkscape:window-maximized="1"
     inkscape:current-layer="svg4184" />
  <g
     id="g4321">
    <path
       sodipodi:nodetypes="ccsssccssscccc"
       inkscape:connector-curvature="0"
       id="rect4289"
       d="m 1563,314.21778 -274,906.00002 c -24,79.3333 -47.8333,130.5 -71.5,153.5 -23.6667,23 -66.5,34.5 -128.5,34.5 l -868.99993,0 c -18,0 -30.6667,5 -38,15 -7.3334,10.6667 -7.6667,25 -1,43 16,46.6667 64,70 144,70 l 922.99993,0 c 19.3333,0 38,-5.1667 56,-15.5 18,-10.3333 29.6667,-24.1667 35,-41.5 l 300,-987.00002 c 4.6667,-14.66667 6.3333,-33.66667 5,-57 -5.1326,-26.56828 -60.666,-119.99567 -81,-121 z"
       style="fill:#ffffff;fill-opacity:1;stroke:#000000;stroke-width:0;stroke-miterlimit:4;stroke-dasharray:none" />
    <path
       style="fill:#ffffff;fill-opacity:1"
       inkscape:connector-curvature="0"
       d="m 613.96457,515.26619 147.32453,27.73869 36.9727,-9.24624 16.14263,7.70519 15.84965,9.24623 31.38671,-41.60802 17.30958,-13.86934 15.84477,-6.16415 18.78421,9.24623 -4.10154,21.57453 -36.37693,36.9849 1.18169,24.65661 29.34571,0 24.64355,-21.57454 66.32342,6.16416 7.92965,20.03349 11.4455,1.54103 19.6581,-10.78726 28.462,-10.78726 7.9151,-26.19764 12.6123,-20.03349 17.8955,-16.95142 15.2586,-3.08208 12.0364,13.86934 1.7677,21.57453 -11.4406,13.86933 -6.7432,20.0335 51.9434,4.62311 160.8112,-12.32829 10.8546,-10.78727 14.3701,-29.27971 18.4837,-12.32831 16.7311,12.32831 7.9298,20.03348 -13.4863,40.06699 -30.8057,23.11554 -22.8735,50.85418 3.2301,6.16416 -3.811,12.32829 -9.3922,-4.62311 -13.7793,41.60802 -12.3266,-4.62312 14.6605,-38.52594 -12.0312,1.54104 5.2784,-12.3283 13.2031,-7.70513 15.537,-50.85424 -205.1178,29.27971 -14.0771,27.73862 -4.6826,40.06699 187.5447,78.59291 24.9415,-7.70519 12.0411,29.27972 -28.7378,66.26461 -13.7915,3.08207 -34.0136,86.29812 6.753,10.78726 -10.5593,16.95142 -6.1644,-6.16415 -12.6074,35.4439 -11.7382,0 14.3677,-36.98494 -14.0846,4.62311 8.2105,-20.03349 11.4429,-6.16415 31.3718,-87.83915 -11.1522,-3.08206 15.5369,-50.85426 -152.613,-46.23113 -5.2782,12.32831 -44.3118,1.54104 -30.2196,20.03349 -40.79111,-1.54104 -20.5469,-15.41038 -13.79896,-20.03349 2.92485,-30.82075 -16.72865,-4.62312 -26.10832,29.27973 -120.57127,124.82404 -8.79887,15.41038 -85.66409,80.13396 -74.83412,-7.70519 30.79587,-53.93632 95.33197,-130.98819 -15.25881,3.08206 -18.78424,-9.24622 -8.51567,-16.95141 -25.53718,-20.03349 -110.63008,10.78725 -50.75195,50.85426 -30.8106,7.70518 -85.66653,72.42876 0.59084,12.32831 -10.8545,10.78726 -4.40431,-7.70518 -6.45508,3.08208 -5.57374,6.16413 -21.12304,18.49246 -7.63188,-6.16414 29.33595,-30.82076 -11.15237,-3.08208 12.02881,-9.24622 16.7261,-3.08208 87.12892,-87.83915 8.20797,-27.73867 39.31154,-36.9849 240.91344,-47.77217 3.51559,-18.49239 -61.04016,-3.08208 -2.93948,-15.41038 20.23924,-29.27971 -181.37741,-64.72356 -25.23442,9.24623 -20.53711,15.41037 -8.51076,-1.54103 -68.06644,49.31318 -3.51805,10.78726 -9.9756,6.16415 -0.002,-7.70518 -30.80567,23.11557 -4.99026,-4.62312 31.39163,-26.19764 -9.6851,-3.08208 8.50831,-6.16415 13.20559,0 70.11967,-52.39526 5.57127,-13.86934 79.21392,-61.64151 38.7354,-3.08207 2.35357,18.49245 -17.30958,13.86935 z"
       id="path4264" />
    <g
       transform="translate(132.96087,-31.835125)"
       id="g4317">
      <path
         inkscape:connector-curvature="0"
         d="m 1569.8967,509.83515 q 40,57 18,129 l -275,905.99995 q -19,64 -76.5,107.5 -57.5,43.5 -122.5,43.5 l -922.99985,0 q -77,0 -148.500002,-53.5 -71.5,-53.5 -99.5,-131.5 -24,-67 -2,-127 0,-4 3,-27 3,-23 4,-37 1,-8 -3,-21.5 -4,-13.5 -3,-19.5 2,-11 8,-21 6,-10 16.5,-23.5 10.5,-13.5 16.5,-23.5 22.9999996,-38 45,-91.4999 22,-53.5 30,-91.5 3,-10 0.5,-30.00004 -2.5,-20.00001 -0.5,-28.00001 3,-11 17,-28 14,-17 17,-23 21.000002,-36 42.000002,-92 21,-56 25,-90 1,-9 -2.5,-32 -3.5,-23 0.5,-28 4,-13 22,-30.5 18,-17.5 22,-22.5 19,-26 42.5,-84.5 23.5,-58.5 27.5,-96.5 1,-8 -3,-25.5 -4,-17.5 -2,-26.5 2,-8 9,-18 7,-10 18,-23 11,-13 17,-21 8,-12 16.5,-30.5 8.5,-18.5 15,-35 6.5,-16.5 16,-36 9.5,-19.5 19.5,-32 10,-12.5 26.5,-23.5 16.5,-11 36,-11.5 19.5,-0.5 47.5,5.5 l -1,3 q 38,-9 51,-9 l 760.99985,0 q 74,0 114,56 40,56 18,130 l -274,905.99995 q -36,119 -71.5,153.5 -35.5,34.5 -128.49999,34.5 l -868.999862,0 q -27,0 -38,15 -11,16 -1,43 24,70 144.000002,70 l 922.99985,0 q 29,0 56,-15.5 27,-15.5 35,-41.5 l 300,-986.99995 q 7,-22 5,-57 38,15 59,43 z"
         id="path4277" />
      <path
         id="path4264-3"
         d="m 480.86142,547.10134 147.32453,27.73869 36.9727,-9.24624 16.14263,7.70519 15.84965,9.24623 31.38671,-41.60802 17.30958,-13.86934 15.84477,-6.16415 18.78421,9.24623 -4.10154,21.57453 -36.37693,36.9849 1.18169,24.65661 29.34571,0 24.64355,-21.57454 66.32333,6.16416 7.9297,20.03349 11.4455,1.54103 19.6581,-10.78726 28.462,-10.78726 7.915,-26.19764 12.6123,-20.03349 17.8955,-16.95142 15.2586,-3.08208 12.0364,13.86934 1.7677,21.57453 -11.4406,13.86933 -6.7432,20.0335 51.94339,4.62311 160.8112,-12.32829 10.8546,-10.78727 14.3701,-29.27971 18.4837,-12.32831 16.7311,12.32831 7.9298,20.03348 -13.4863,40.06699 -30.8057,23.11554 -22.8735,50.85418 3.2301,6.16416 -3.811,12.32829 -9.3922,-4.62311 -13.7793,41.60802 -12.3266,-4.62312 14.6605,-38.52594 -12.0312,1.54104 5.2784,-12.3283 13.2031,-7.70513 15.537,-50.85424 -205.11779,29.27971 -14.0771,27.73862 -4.6826,40.06699 187.54469,78.59291 24.9415,-7.70519 12.0411,29.27972 -28.7378,66.26461 -13.7915,3.08207 -34.0136,86.29812 6.753,10.78724 -10.5593,16.95144 -6.1644,-6.1641 -12.6074,35.4439 -11.7382,0 14.3677,-36.985 -14.0846,4.6232 8.2105,-20.03357 11.4429,-6.16415 31.3718,-87.83915 -11.1522,-3.08206 15.5369,-50.85426 -152.61299,-46.23113 -5.2782,12.32831 -44.3118,1.54104 -30.2195,20.03349 -40.7911,-1.54104 -20.5469,-15.41038 -13.799,-20.03349 2.9248,-30.82075 -16.7285,-4.62312 -26.10835,29.27973 -120.57127,124.82404 -8.79887,15.41038 -85.66409,80.13401 -74.83412,-7.70524 30.79587,-53.93632 95.33197,-130.98819 -15.25881,3.08206 -18.78424,-9.24622 -8.51567,-16.95141 -25.53718,-20.03349 -110.63008,10.78725 -50.75195,50.85426 -30.8106,7.70518 -85.66653,72.42876 0.59084,12.32831 -10.8545,10.78726 -4.40431,-7.70518 -6.45508,3.08208 -5.57374,6.16413 -21.12304,18.49246 -7.63188,-6.16414 29.33595,-30.82076 -11.15237,-3.08208 12.02881,-9.24622 16.7261,-3.08208 87.12892,-87.83915 8.20797,-27.73867 39.31154,-36.9849 240.91344,-47.77217 3.51559,-18.49239 -61.04016,-3.08208 -2.93948,-15.41038 20.23924,-29.27971 -181.37741,-64.72356 -25.23442,9.24623 -20.53711,15.41037 -8.51076,-1.54103 -68.06644,49.31318 -3.51805,10.78726 -9.9756,6.16415 -0.002,-7.70518 -30.80567,23.11557 -4.99026,-4.62312 31.39163,-26.19764 -9.6851,-3.08208 8.50831,-6.16415 13.20559,0 70.11967,-52.39526 5.57127,-13.86934 79.21392,-61.64151 38.7354,-3.08207 2.35357,18.49245 -17.30958,13.86935 z"
         inkscape:connector-curvature="0"
         style="fill:#ffffff;fill-opacity:1" />
    </g>
  </g>
</svg>
