<?xml version="1.0" encoding="UTF-8" standalone="no"?>
<svg
   xmlns:osb="http://www.openswatchbook.org/uri/2009/osb"
   xmlns:dc="http://purl.org/dc/elements/1.1/"
   xmlns:cc="http://creativecommons.org/ns#"
   xmlns:rdf="http://www.w3.org/1999/02/22-rdf-syntax-ns#"
   xmlns:svg="http://www.w3.org/2000/svg"
   xmlns="http://www.w3.org/2000/svg"
   xmlns:sodipodi="http://sodipodi.sourceforge.net/DTD/sodipodi-0.dtd"
   xmlns:inkscape="http://www.inkscape.org/namespaces/inkscape"
   viewBox="0 -200 1000 1000"
   id="svg2"
   version="1.1"
   inkscape:version="0.91 r13725"
   sodipodi:docname="acircumflex_xwing-miniatures.svg">
  <metadata
     id="metadata12">
    <rdf:RDF>
      <cc:Work
         rdf:about="">
        <dc:format>image/svg+xml</dc:format>
        <dc:type
           rdf:resource="http://purl.org/dc/dcmitype/StillImage" />
      </cc:Work>
    </rdf:RDF>
  </metadata>
  <defs
     id="defs10">
    <linearGradient
       id="linearGradient5594"
       osb:paint="solid">
      <stop
         style="stop-color:#000000;stop-opacity:1;"
         offset="0"
         id="stop5596" />
    </linearGradient>
    <linearGradient
       id="linearGradient5578"
       osb:paint="solid">
      <stop
         style="stop-color:#000000;stop-opacity:1;"
         offset="0"
         id="stop5580" />
    </linearGradient>
  </defs>
  <sodipodi:namedview
     pagecolor="#ffffff"
     bordercolor="#666666"
     borderopacity="1"
     objecttolerance="10"
     gridtolerance="10"
     guidetolerance="10"
     inkscape:pageopacity="0"
     inkscape:pageshadow="2"
     inkscape:window-width="1920"
     inkscape:window-height="1016"
     id="namedview8"
     showgrid="false"
     inkscape:zoom="0.236"
     inkscape:cx="-830.50848"
     inkscape:cy="474.57626"
     inkscape:window-x="0"
     inkscape:window-y="27"
     inkscape:window-maximized="1"
     inkscape:current-layer="svg2" />
  <g
     transform="matrix(1.002291,0,0,-0.99885845,24.410653,600.15753)"
     id="g4"
     style="fill:#000000;fill-opacity:1">
    <path
       d="m 912,604 0,-609 -66,-66 q 0,0 -66,-67 l -606,0 -135,135 0,609 66,66 q 0,0 67,66 l 606,0 z M 458,139 q 19,0 36.5,3.5 17.5,3.5 31,8.5 13.5,5 21.5,10 8,5 8,9 0,4 -8.5,9 -8.5,5 -22,9.5 -13.5,4.5 -31,8 Q 476,200 458,200 l -131,0 -23,35 -50,0 16,-35 -16,0 0,-7 -25,0 0,-47 25,0 0,-7 16,0 -16,-33 50,0 23,33 131,0 z m 89,133 q 19,0 36,3.5 17,3.5 30.5,8.5 13.5,5 21.5,10 8,5 8,9 0,4 -8.5,9 -8.5,5 -22,10 -13.5,5 -30.5,8.5 -17,3.5 -35,3.5 l -131,0 -24,35 -49,0 16,-35 -16,0 0,-7 -26,0 0,-48 26,0 0,-7 15,0 -15,-33 49,0 23,33 132,0 z m 95,130 q 19,0 36.5,3.5 17.5,3.5 31,8.5 13.5,5 21.5,10 8,5 8,9 0,4 -8.5,9 -8.5,5 -22,9.5 -13.5,4.5 -31,8 Q 660,463 642,463 l -131,0 -24,35 -49,0 16,-35 -16,0 0,-7 -25,0 0,-47 25,0 0,-7 16,0 -16,-33 49,0 23,33 132,0 z"
       id="path6"
       inkscape:connector-curvature="0"
       style="fill:#000000;fill-opacity:1" />
  </g>
</svg>
