<?xml version="1.0" encoding="UTF-8" standalone="no"?>
<svg
   xmlns:dc="http://purl.org/dc/elements/1.1/"
   xmlns:cc="http://creativecommons.org/ns#"
   xmlns:rdf="http://www.w3.org/1999/02/22-rdf-syntax-ns#"
   xmlns:svg="http://www.w3.org/2000/svg"
   xmlns="http://www.w3.org/2000/svg"
   xmlns:sodipodi="http://sodipodi.sourceforge.net/DTD/sodipodi-0.dtd"
   xmlns:inkscape="http://www.inkscape.org/namespaces/inkscape"
   viewBox="0 -200 1000 1000"
   id="svg2"
   version="1.1"
   inkscape:version="0.91 r13725"
   sodipodi:docname="ccedilla_xwing-miniatures.svg">
  <metadata
     id="metadata12">
    <rdf:RDF>
      <cc:Work
         rdf:about="">
        <dc:format>image/svg+xml</dc:format>
        <dc:type
           rdf:resource="http://purl.org/dc/dcmitype/StillImage" />
      </cc:Work>
    </rdf:RDF>
  </metadata>
  <defs
     id="defs10" />
  <sodipodi:namedview
     pagecolor="#ffffff"
     bordercolor="#666666"
     borderopacity="1"
     objecttolerance="10"
     gridtolerance="10"
     guidetolerance="10"
     inkscape:pageopacity="0"
     inkscape:pageshadow="2"
     inkscape:window-width="1920"
     inkscape:window-height="1016"
     id="namedview8"
     showgrid="false"
     inkscape:zoom="0.236"
     inkscape:cx="508.47458"
     inkscape:cy="500"
     inkscape:window-x="0"
     inkscape:window-y="27"
     inkscape:window-maximized="1"
     inkscape:current-layer="svg2" />
  <g
     transform="matrix(1,0,0,-1,27.5,601.5)"
     id="g4"
     style="fill:#000000;fill-opacity:1">
    <path
       d="m 472,738 q 90,0 170,-34.5 Q 722,669 781,610 840,551 874.5,471.5 909,392 909,302 909,212 874.5,132 840,52 781,-7 722,-66 642,-100.5 562,-135 472,-135 382,-135 302.5,-100.5 223,-66 164,-7 105,52 70.5,132 36,212 36,302 36,392 70.5,471.5 105,551 164,610 223,669 302.5,703.5 382,738 472,738 Z m 0,-824 q 80,0 151,30.5 71,30.5 123.5,83 52.5,52.5 83,123.5 30.5,71 30.5,151 0,80 -30.5,150.5 -30.5,70.5 -83,123 Q 694,628 623,658.5 552,689 472,689 392,689 321.5,658.5 251,628 198.5,575.5 146,523 115.5,452.5 85,382 85,302 85,222 115.5,151 146,80 198.5,27.5 251,-25 321.5,-55.5 392,-86 472,-86 Z m 233,392 q 9,-11 12,-15 -48,-77 -164,-98 -42,-11 -84,-11 -32,0 -70,8 -120,21 -163,100 26,49 64,78 36,26 98,46 2,0 6,1 4,1 10,2 12,3 18,3 3,1 7.5,1 4.5,0 9.5,1 6,1 12,1 l 13,0 6,0 q 42,0 76,-10 7,-2 13,-4.5 6,-2.5 12,-4.5 l 11,-5.5 q 0,0 10,-4.5 11,-5 20,-11 5,-3 9,-6 4,-3 8,-5 6,-5 15,-12 5,-5 8.5,-8 3.5,-3 5.5,-5 l 5,-5 8,-8 q 0,0 7.5,-8.5 7.5,-8.5 4.5,-5.5 -3,3 4.5,-5.5 Q 705,306 705,306 Z M 392,214 q 10,-2 17,-2.5 7,-0.5 12,-1.5 -24,13 -39,39 -15,25 -15,55 0,39 24,69 -42,-11 -73,-33 -32,-23 -42,-49 5,-9 10.5,-16.5 5.5,-7.5 11.5,-14.5 7,-6 14,-11.5 7,-5.5 15,-10.5 8,-5 15.5,-8 7.5,-3 15.5,-6 7,-2 15.5,-5 8.5,-3 18.5,-5 z m 92,81 q 12,-12 29,-12 17,0 29,12 12,12 12,28 0,17 -12,29 -12,12 -29,12 -17,0 -29,-12 -12,-12 -12,-29 0,-16 12,-28 z m 186,-30 q 7,6 12,12.5 5,6.5 10,13.5 -32,36 -63,58 -16,10 -34,17 -18,7 -38,11 27,-32 27,-73 0,-30 -15,-55 -14,-24 -41,-40 2,0 3.5,0.5 1.5,0.5 3.5,0.5 2,0 4,0.5 2,0.5 3,0.5 12,3 21,5 9,2 16,4 7,2 15,5 8,3 18,6 21,8 32,15 12,7 26,19 z"
       id="path6"
       inkscape:connector-curvature="0"
       style="fill:#000000;fill-opacity:1" />
  </g>
</svg>
