<?xml version="1.0" encoding="UTF-8" standalone="no"?>
<svg
   xmlns:dc="http://purl.org/dc/elements/1.1/"
   xmlns:cc="http://creativecommons.org/ns#"
   xmlns:rdf="http://www.w3.org/1999/02/22-rdf-syntax-ns#"
   xmlns:svg="http://www.w3.org/2000/svg"
   xmlns="http://www.w3.org/2000/svg"
   xmlns:sodipodi="http://sodipodi.sourceforge.net/DTD/sodipodi-0.dtd"
   xmlns:inkscape="http://www.inkscape.org/namespaces/inkscape"
   viewBox="0 -200 1000 1000"
   id="svg2"
   version="1.1"
   inkscape:version="0.91 r13725"
   sodipodi:docname="eacute_xwing-miniatures.svg">
  <metadata
     id="metadata12">
    <rdf:RDF>
      <cc:Work
         rdf:about="">
        <dc:format>image/svg+xml</dc:format>
        <dc:type
           rdf:resource="http://purl.org/dc/dcmitype/StillImage" />
      </cc:Work>
    </rdf:RDF>
  </metadata>
  <defs
     id="defs10" />
  <sodipodi:namedview
     pagecolor="#ffffff"
     bordercolor="#666666"
     borderopacity="1"
     objecttolerance="10"
     gridtolerance="10"
     guidetolerance="10"
     inkscape:pageopacity="0"
     inkscape:pageshadow="2"
     inkscape:window-width="1920"
     inkscape:window-height="1016"
     id="namedview8"
     showgrid="false"
     inkscape:zoom="0.236"
     inkscape:cx="508.47458"
     inkscape:cy="491.52542"
     inkscape:window-x="0"
     inkscape:window-y="27"
     inkscape:window-maximized="1"
     inkscape:current-layer="svg2" />
  <g
     transform="matrix(1,0,0,-1,33.5,601.5)"
     id="g4"
     style="fill:#000000;fill-opacity:1">
    <path
       d="M 776,610 Q 840,546 871.5,465.5 903,385 903,301.5 903,218 871.5,137.5 840,57 776,-7 711,-71 631.5,-103 552,-135 467,-135 q -85,0 -165,32 -80,32 -144,96 -64,64 -96,144.5 -32,80.5 -32,164 0,83.5 32,164 32,80.5 96,144.5 64,64 144,96 80,32 165,32 85,0 164.5,-32 Q 711,674 776,610 Z M 741,28 q 55,55 84,125.5 29,70.5 29,148.5 0,78 -29,148 -29,70 -84,125 -55,55 -125.5,84 Q 545,688 467,688 389,688 318.5,659 248,630 193,575 136,518 108,447 80,376 80,301.5 80,227 108,156 136,85 193,28 248,-27 318.5,-56 389,-85 467,-85 545,-85 615.5,-56 686,-27 741,28 Z M 319,231 q -25,0 -43,19 -19,18 -19,43 0,26 19,44 18,18 43,18 24,0 44,-18 18,-18 18,-44 0,-26 -18,-44 -20,-18 -44,-18 z M 481,55 q -9,5 -18,11 -9,6 -17,14 -16,15 -25,38 -9,22 -9,51 l 0,2 0,4 q 0,46 48,94 6,8 10,13.5 4,5.5 7,9.5 4,4 6.5,9.5 2.5,5.5 5.5,12.5 6,13 6,26 0,34 -37,71 l -65,-56 0,211 181,-59 -45,-40 q 46,-65 46,-126 l 0,-2 q 0,-57 -40,-109 -15,-17 -23,-26 -4,-5 -6.5,-9 -2.5,-4 -3.5,-6 -2,-6 -4,-10 -2,-6 -3,-8 2,-8 3.5,-14.5 1.5,-6.5 3.5,-11.5 4,-10 13,-15 9,-5 16,-6 5,-1 9.5,-1 l 10.5,0 -28,-84 q -23,7 -42,16 z"
       id="path6"
       style="fill:#000000;fill-opacity:1"
       inkscape:connector-curvature="0" />
  </g>
</svg>
