<?xml version="1.0" encoding="UTF-8" standalone="no"?>
<svg
   xmlns:dc="http://purl.org/dc/elements/1.1/"
   xmlns:cc="http://creativecommons.org/ns#"
   xmlns:rdf="http://www.w3.org/1999/02/22-rdf-syntax-ns#"
   xmlns:svg="http://www.w3.org/2000/svg"
   xmlns="http://www.w3.org/2000/svg"
   xmlns:sodipodi="http://sodipodi.sourceforge.net/DTD/sodipodi-0.dtd"
   xmlns:inkscape="http://www.inkscape.org/namespaces/inkscape"
   viewBox="0 -200 1000 1000"
   id="svg2"
   version="1.1"
   inkscape:version="0.91 r13725"
   sodipodi:docname="Eacute_xwing-miniatures.svg"
   width="1000"
   height="1000">
  <metadata
     id="metadata12">
    <rdf:RDF>
      <cc:Work
         rdf:about="">
        <dc:format>image/svg+xml</dc:format>
        <dc:type
           rdf:resource="http://purl.org/dc/dcmitype/StillImage" />
        <dc:title />
      </cc:Work>
    </rdf:RDF>
  </metadata>
  <defs
     id="defs10" />
  <sodipodi:namedview
     pagecolor="#ffffff"
     bordercolor="#666666"
     borderopacity="1"
     objecttolerance="10"
     gridtolerance="10"
     guidetolerance="10"
     inkscape:pageopacity="0"
     inkscape:pageshadow="2"
     inkscape:window-width="1920"
     inkscape:window-height="1016"
     id="namedview8"
     showgrid="false"
     inkscape:zoom="0.236"
     inkscape:cx="-153.01695"
     inkscape:cy="491.52542"
     inkscape:window-x="0"
     inkscape:window-y="27"
     inkscape:window-maximized="1"
     inkscape:current-layer="svg2" />
  <g
     transform="matrix(1,0,0,-1,-20,599)"
     id="g4"
     style="fill:#000000;fill-opacity:1">
    <path
       d="m 975,557 6,-10 6,-10 Q 899,385 813,234.5 727,84 639,-68 l -21,0 -5,0 -2,-4 Q 600,-90 590.5,-107.5 581,-125 570,-143 l -99,0 q -11,18 -21,35.5 -10,17.5 -21,35.5 l -2,4 -5,0 -19,0 Q 315,84 228,233.5 141,383 53,535 l 12,21 2,4 -2,4 Q 54,582 44.5,599.5 35,617 24,635 36,657 48.5,678.5 61,700 74,721 l 82,0 5,0 2,4 9,15 q 175,0 348,0.5 173,0.5 348,0.5 l 9,-15 2,-4 5,0 82,0 Q 978,700 990.5,678.5 1003,657 1016,636 1005,618 995.5,600 986,582 975,565 l -2,-4 z m -397,-328 -117,0 0,-99 117,0 0,99 z m 30,341 -177,0 26,-277 126,0 z"
       id="path6"
       inkscape:connector-curvature="0"
       style="fill:#000000;fill-opacity:1" />
  </g>
</svg>
