<?xml version="1.0" encoding="UTF-8" standalone="no"?>
<svg
   xmlns:dc="http://purl.org/dc/elements/1.1/"
   xmlns:cc="http://creativecommons.org/ns#"
   xmlns:rdf="http://www.w3.org/1999/02/22-rdf-syntax-ns#"
   xmlns:svg="http://www.w3.org/2000/svg"
   xmlns="http://www.w3.org/2000/svg"
   xmlns:sodipodi="http://sodipodi.sourceforge.net/DTD/sodipodi-0.dtd"
   xmlns:inkscape="http://www.inkscape.org/namespaces/inkscape"
   viewBox="0 -200 1000 1000"
   id="svg2"
   version="1.1"
   inkscape:version="0.91 r13725"
   sodipodi:docname="ecircumflex_xwing-miniatures.svg"
   width="1000"
   height="1000">
  <metadata
     id="metadata12">
    <rdf:RDF>
      <cc:Work
         rdf:about="">
        <dc:format>image/svg+xml</dc:format>
        <dc:type
           rdf:resource="http://purl.org/dc/dcmitype/StillImage" />
        <dc:title></dc:title>
      </cc:Work>
    </rdf:RDF>
  </metadata>
  <defs
     id="defs10" />
  <sodipodi:namedview
     pagecolor="#ffffff"
     bordercolor="#666666"
     borderopacity="1"
     objecttolerance="10"
     gridtolerance="10"
     guidetolerance="10"
     inkscape:pageopacity="0"
     inkscape:pageshadow="2"
     inkscape:window-width="1920"
     inkscape:window-height="1016"
     id="namedview8"
     showgrid="false"
     inkscape:zoom="0.236"
     inkscape:cx="516.97458"
     inkscape:cy="500"
     inkscape:window-x="0"
     inkscape:window-y="27"
     inkscape:window-maximized="1"
     inkscape:current-layer="svg2" />
  <g
     transform="matrix(1,0,0,-1,-21,598)"
     id="g4"
     style="fill:#000000;fill-opacity:1">
    <path
       d="m 976,555 6,-10 6,-10 Q 900,383 814,233 728,83 640,-69 l -21,0 -5,0 -2,-5 q -11,-17 -20.5,-35 -9.5,-18 -20.5,-35 l -99,0 q -11,17 -21,35 -10,18 -21,36 l -2,4 -5,0 -19,0 Q 316,83 229,232.5 142,382 54,534 l 12,20 2,4 -2,5 Q 55,580 45.5,598 36,616 25,634 37,655 49.5,676.5 62,698 75,720 l 82,0 5,0 2,4 q 2,4 4.5,7 2.5,3 4.5,7 175,1 348,1 173,0 348,1 2,-5 4.5,-8.5 2.5,-3.5 4.5,-7.5 l 2,-4 5,0 82,0 q 12,-22 24.5,-43 12.5,-21 25.5,-43 -11,-18 -20.5,-35.5 Q 987,581 976,563 l -2,-4 z m -16,79 -9,15 -13,22 -53,0 -5,0 -28,0 -11,19 Q 680,690 521,689.5 362,689 201,689 l -10,-19 -29,0 -5,0 -54,0 -21,-36 6,-11 21,-36 2,-4 15,-25 -15,-24 26,-45 295,-509 25,0 14,-25 2,-4 27,-46 42,0 7,11 20,35 2,4 15,25 26,0 318,555 -13,24 14,25 2,4 20,35 z m -381,-506 -117,0 0,99 117,0 0,-99 z m 5,164 -126,0 -26,277 177,0 z"
       id="path6"
       inkscape:connector-curvature="0"
       style="fill:#000000;fill-opacity:1" />
  </g>
</svg>
