<?xml version="1.0" encoding="UTF-8" standalone="no"?>
<svg
   xmlns:dc="http://purl.org/dc/elements/1.1/"
   xmlns:cc="http://creativecommons.org/ns#"
   xmlns:rdf="http://www.w3.org/1999/02/22-rdf-syntax-ns#"
   xmlns:svg="http://www.w3.org/2000/svg"
   xmlns="http://www.w3.org/2000/svg"
   xmlns:sodipodi="http://sodipodi.sourceforge.net/DTD/sodipodi-0.dtd"
   xmlns:inkscape="http://www.inkscape.org/namespaces/inkscape"
   viewBox="0 -200 1025 1000"
   id="svg2"
   version="1.1"
   inkscape:version="0.91 r13725"
   sodipodi:docname="edieresis_xwing-miniatures.svg">
  <metadata
     id="metadata12">
    <rdf:RDF>
      <cc:Work
         rdf:about="">
        <dc:format>image/svg+xml</dc:format>
        <dc:type
           rdf:resource="http://purl.org/dc/dcmitype/StillImage" />
      </cc:Work>
    </rdf:RDF>
  </metadata>
  <defs
     id="defs10" />
  <sodipodi:namedview
     pagecolor="#ffffff"
     bordercolor="#666666"
     borderopacity="1"
     objecttolerance="10"
     gridtolerance="10"
     guidetolerance="10"
     inkscape:pageopacity="0"
     inkscape:pageshadow="2"
     inkscape:window-width="1920"
     inkscape:window-height="1016"
     id="namedview8"
     showgrid="false"
     inkscape:zoom="0.236"
     inkscape:cx="520.97458"
     inkscape:cy="500"
     inkscape:window-x="0"
     inkscape:window-y="27"
     inkscape:window-maximized="1"
     inkscape:current-layer="svg2" />
  <g
     transform="matrix(1,0,0,-1,-20.5,606)"
     id="g4"
     style="fill:#000000;fill-opacity:1">
    <path
       d="m 1020,208 5,-3 -1,-6 Q 1004,110 955,34 l -3,-5 -6,1 -13,4 q -7,2 -14,3.5 Q 912,39 905,41 859,-22 797,-66 l 4,-14 4,-14 3,-13 2,-6 -5,-4 q -77,-48 -165,-68 l -6,-1 -3,5 -7,12 q -4,6 -7.5,12.5 -3.5,6.5 -7.5,12.5 -38,-6 -76,-6 -37,0 -76,6 -8,-12 -14,-25 l -7,-12 -3,-5 -6,1 q -90,20 -165,68 l -5,4 1,6 4,13 q 2,7 3.5,14 1.5,7 3.5,14 Q 206,-21 162,41 154,39 147.5,37.5 141,36 133,34 l -13,-4 -6,-1 -3,5 Q 61,112 43,199 l -2,6 6,3 11,7 q 7,4 13,7.5 6,3.5 13,7.5 -3,19 -5,38 -2,19 -2,38 0,19 2,37.5 2,18.5 5,38.5 -7,3 -13,6.5 -6,3.5 -13,7.5 l -11,7 -6,3 2,6 q 18,87 68,165 l 3,5 6,-1 13,-4 q 8,-2 14.5,-3.5 6.5,-1.5 14.5,-3.5 22,31 49,57.5 27,26.5 58,49.5 -2,8 -3.5,14.5 Q 264,698 262,706 l -4,13 -1,5 5,4 q 75,50 165,68 l 6,2 3,-6 7,-11 q 3,-7 6.5,-13 3.5,-6 7.5,-13 39,6 76,6 38,0 76,-6 4,7 7.5,13 3.5,6 7.5,13 l 7,11 3,6 6,-2 q 87,-18 165,-68 l 5,-4 -2,-5 -3,-13 q -2,-8 -4,-14.5 -2,-6.5 -4,-14.5 62,-44 108,-107 7,2 14,3.5 7,1.5 14,3.5 l 13,4 6,1 3,-5 q 49,-77 69,-165 l 1,-6 -5,-3 -12,-7 q -12,-8 -25,-14 6,-39 6,-76 0,-39 -6,-76 6,-4 12.5,-7.5 6.5,-3.5 12.5,-7.5 z m -92,199 30,17 6,4 4,2 q -14,50 -39,95 l -2,-1 -9,-2 -34,-9 -19,28 q -41,55 -96,96 l -28,20 9,33 3,11 q -43,24 -95,40 -2,-3 -3,-5.5 -1,-2.5 -3,-5.5 l -17,-29 -34,5 q -35,6 -68,6 -34,0 -67,-6 l -34,-5 -18,29 q -2,3 -3,5.5 -1,2.5 -2,5.5 -52,-16 -95,-40 l 3,-11 9,-33 -28,-20 q -28,-20 -52,-44 -24,-24 -44,-52 l -20,-28 -33,9 -11,3 -1,0 Q 113,481 98,430 l 11,-6 29,-17 -5,-34 q -6,-33 -6,-67 0,-35 6,-68 l 5,-34 -29,-17 -9,-5 -2,-1 q 15,-51 39,-95 l 5,1 7,2 33,9 20,-28 q 20,-28 44,-52 24,-24 52,-44 l 28,-20 -9,-33 -3,-11 q 43,-24 95,-40 l 0,1 6,10 17,30 34,-6 q 33,-6 67,-6 33,0 68,6 l 34,6 17,-30 6,-11 q 52,16 95,40 -2,8 -3,11 l -9,33 28,20 q 55,40 96,96 l 19,28 34,-9 11,-3 q 25,45 39,95 -2,2 -5,3 -3,1 -5,3 l -30,17 6,34 q 6,33 6,68 0,34 -6,67 z m -469,-95 -15,29 18,30 32,0 15,-27 -18,-30 z m -63,35 -10,26 18,30 27,4 10,-25 -18,-30 z m 3,-70 -13,27 13,28 28,2 17,-31 -17,-29 z m 57,114 -10,25 18,25 30,1 15,-22 -18,-29 -35,0 z m 68,-134 35,0 16,-27 -16,-27 -35,0 -18,27 z m 135,95 -17,29 9,26 27,-4 17,-30 -9,-26 z m -84,28 -16,-27 -35,0 -18,27 18,27 35,0 z m -51,50 -18,21 18,21 35,0 16,-21 -16,-21 -35,0 z m -101,-174 18,-30 -10,-26 -27,4 -18,30 10,26 z m 152,47 -16,-29 -36,0 -17,29 17,31 36,0 z m 48,-6 16,-28 -19,-30 -31,-2 -15,29 17,29 z m 63,-37 9,-26 -17,-30 -27,-4 -9,26 17,30 z m 0,71 13,-27 -14,-28 -27,-2 -16,30 16,32 z m 53,59 q 16,-39 16,-84 0,-45 -16,-83 -16,-38 -46,-68 -32,-30 -69,-46 -40,-17 -84,-17 -43,0 -83,17 -38,16 -68,46 -29,27 -46,68 -17,40 -17,83 0,42 17,84 17,41 46,68 14,15 31,26.5 17,11.5 37,20.5 40,17 83,17 44,0 84,-17 41,-19 69,-47 30,-30 46,-68 z m 0,-109 q 1,6 1.5,12 0.5,6 0.5,13 0,7 -0.5,12.5 Q 740,324 739,329 l -3,-16 -20,-2 -13,25 12,28 19,-5 q -1,2 -2,5 l -2,6 q -2,8 -4,12 l -16,4 -16,27 5,16 q -4,4 -7,7.5 -3,3.5 -6,7.5 -5,6 -15,13 l 14,-22 -6,-15 -29,6 -13,25 9,15 24,-6 q -13,10 -23,16 -6,4 -12,7.5 -6,3.5 -13,6.5 l 12,-17 -10,-14 -31,3 -18,23 13,15 7,-1 q -3,1 -6.5,2 -3.5,1 -6.5,2 -3,1 -6.5,1 -3.5,0 -6.5,1 l -11,-13 -33,0 -11,13 q -4,-1 -7,-1 -3,0 -7,-1 -3,-1 -6.5,-2 -3.5,-1 -6.5,-2 l 7,1 12,-15 -18,-23 -30,-3 -10,14 13,17 q -12,-6 -26,-14 -6,-4 -12,-7.5 -6,-3.5 -11,-8.5 l 24,6 10,-15 -13,-25 -30,-6 -7,15 15,22 q -5,-3 -8,-6 l -7,-7 -6.5,-6.5 q 0,0 -6.5,-7.5 l 6,-17 -16,-27 -17,-4 q -2,-4 -4,-12 l -2,-6 q 0,0 -2,-5 l 19,5 13,-28 -14,-25 -20,2 -4,16 q 0,-7 -1,-11 l 0,-12 0,-13 q 1,-4 1,-12 l 4,14 20,1 14,-23 -13,-29 -17,5 q 0,-3 2,-9 1,-4 4,-8 l 17,-4 16,-28 -6,-16 q 3,-4 6.5,-7.5 3.5,-3.5 6.5,-7.5 l 7,-7 q 0,0 8,-5 l -15,21 7,15 30,-5 13,-25 -10,-15 -24,6 q 5,-5 11,-8.5 6,-3.5 12,-7.5 6,-5 12.5,-8 6.5,-3 13.5,-6 l -13,16 10,14 30,-2 18,-23 -12,-16 -7,1 q 12,-3 27,-6 l 11,14 33,0 11,-13 q 3,1 6.5,1 3.5,0 6.5,1 3,1 6.5,1.5 3.5,0.5 6.5,1.5 l -7,-1 -13,16 18,23 31,2 10,-14 -12,-16 q 7,3 13,6 6,3 12,8 10,6 23,16 l -24,-6 -9,15 13,25 29,5 6,-15 -14,-21 q 9,6 15,12 3,4 6,7.5 3,3.5 7,7.5 l -5,16 16,28 16,4 q 3,4 4,8 l 3,9 -18,-5 -12,29 13,23 20,-1 z m -119,159 19,-25 -13,-24 -35,0 -17,30 17,21 z m 6,-223 11,-25 -18,-24 -30,-3 -15,23 17,29 35,0 z m -6,154 19,-30 -16,-29 -32,2 -17,30 15,27 31,0 z m -61,-193 16,-21 -16,-22 -35,0 -18,22 18,21 35,0 z m -97,61 -18,29 15,29 32,-2 18,-29 -15,-29 z m 50,-52 -18,-22 -29,3 -17,25 12,24 34,0 z"
       id="path6"
       inkscape:connector-curvature="0"
       style="fill:#000000;fill-opacity:1" />
  </g>
</svg>
