<?xml version="1.0" encoding="UTF-8" standalone="no"?>
<svg
   xmlns:dc="http://purl.org/dc/elements/1.1/"
   xmlns:cc="http://creativecommons.org/ns#"
   xmlns:rdf="http://www.w3.org/1999/02/22-rdf-syntax-ns#"
   xmlns:svg="http://www.w3.org/2000/svg"
   xmlns="http://www.w3.org/2000/svg"
   xmlns:sodipodi="http://sodipodi.sourceforge.net/DTD/sodipodi-0.dtd"
   xmlns:inkscape="http://www.inkscape.org/namespaces/inkscape"
   viewBox="0 -215 1000 1000"
   id="svg2"
   version="1.1"
   inkscape:version="0.91 r13725"
   sodipodi:docname="idieresis_xwing-miniatures.svg">
  <metadata
     id="metadata12">
    <rdf:RDF>
      <cc:Work
         rdf:about="">
        <dc:format>image/svg+xml</dc:format>
        <dc:type
           rdf:resource="http://purl.org/dc/dcmitype/StillImage" />
        <dc:title />
      </cc:Work>
    </rdf:RDF>
  </metadata>
  <defs
     id="defs10" />
  <sodipodi:namedview
     pagecolor="#ffffff"
     bordercolor="#666666"
     borderopacity="1"
     objecttolerance="10"
     gridtolerance="10"
     guidetolerance="10"
     inkscape:pageopacity="0"
     inkscape:pageshadow="2"
     inkscape:window-width="1920"
     inkscape:window-height="1016"
     id="namedview8"
     showgrid="false"
     inkscape:zoom="0.236"
     inkscape:cx="-161.01695"
     inkscape:cy="483.05084"
     inkscape:window-x="0"
     inkscape:window-y="27"
     inkscape:window-maximized="1"
     inkscape:current-layer="svg2" />
  <g
     transform="matrix(0.97370983,0,0,-0.97370983,37.974686,575.65238)"
     id="g4"
     style="fill:#000000;fill-opacity:1">
    <path
       d="m 929,340 0,-83 -8,-8 -391,-438 q -13,-13 -23,-26 l -65,0 q -6,7 -11.5,13.5 -5.5,6.5 -11.5,12.5 l -391,438 -4,4 -4,4 0,83 8,8 391,438 q 6,7 11.5,13 5.5,6 11.5,13 l 65,0 q 5,-7 11,-13 6,-6 12,-13 L 921,348 Z m -50,-19 -386,432 -9,9 -20,0 -8,-9 -386,-432 0,-45 386,-432 q 2,-2 4,-4.5 2,-2.5 4,-4.5 l 20,0 9,9 386,432 0,45 z M 512,19 l -76,0 -27,82 q 17,1 34,1 l 35,0 31,0 q 0,0 30,-1 z m 38,115 -152,0 -28,83 q 52,6 108,6 26,0 51,-1.5 25,-1.5 49,-3.5 z m 40,121 -232,0 -24,70 q 24,6 49.5,10 25.5,4 51.5,6 l 86,0 q 24,-2 47,-5.5 23,-3.5 46,-8.5 z m 38,115 -309,0 -19,59 q 83,37 178,37 89,0 171,-34 z"
       id="path6"
       inkscape:connector-curvature="0"
       style="fill:#000000;fill-opacity:1" />
  </g>
</svg>
