<?xml version="1.0" encoding="UTF-8" standalone="no"?>
<svg
   xmlns:dc="http://purl.org/dc/elements/1.1/"
   xmlns:cc="http://creativecommons.org/ns#"
   xmlns:rdf="http://www.w3.org/1999/02/22-rdf-syntax-ns#"
   xmlns:svg="http://www.w3.org/2000/svg"
   xmlns="http://www.w3.org/2000/svg"
   xmlns:sodipodi="http://sodipodi.sourceforge.net/DTD/sodipodi-0.dtd"
   xmlns:inkscape="http://www.inkscape.org/namespaces/inkscape"
   viewBox="0 -200 1000 1000"
   id="svg2"
   version="1.1"
   inkscape:version="0.91 r13725"
   sodipodi:docname="ntilde_xwing-miniatures.svg">
  <metadata
     id="metadata12">
    <rdf:RDF>
      <cc:Work
         rdf:about="">
        <dc:format>image/svg+xml</dc:format>
        <dc:type
           rdf:resource="http://purl.org/dc/dcmitype/StillImage" />
      </cc:Work>
    </rdf:RDF>
  </metadata>
  <defs
     id="defs10" />
  <sodipodi:namedview
     pagecolor="#ffffff"
     bordercolor="#666666"
     borderopacity="1"
     objecttolerance="10"
     gridtolerance="10"
     guidetolerance="10"
     inkscape:pageopacity="0"
     inkscape:pageshadow="2"
     inkscape:window-width="1920"
     inkscape:window-height="1016"
     id="namedview8"
     showgrid="false"
     inkscape:zoom="0.236"
     inkscape:cx="508.47458"
     inkscape:cy="500"
     inkscape:window-x="0"
     inkscape:window-y="27"
     inkscape:window-maximized="1"
     inkscape:current-layer="svg2" />
  <g
     transform="matrix(1,0,0,-1,23.5,601.5)"
     id="g4"
     style="fill:#000000;fill-opacity:1">
    <path
       d="m 779,739 q 68,-66 134,-134 l 0,-609 -132,-132 -606,0 q -34,34 -67.5,67 Q 74,-36 40,-2 l 0,609 66,66 q 0,0 67,66 l 606,0 z m 85,-154 -75,75 -30,30 -566,0 -52,-52 -51,-51 0,-568 105,-106 566,0 51,52 52,52 0,568 z m -405,-444 -131,0 -23,-34 -50,0 16,34 -16,0 0,7 -25,0 0,47 25,0 0,7 16,0 -16,35 50,0 23,-35 131,0 q 18,0 35.5,-3.5 17.5,-3.5 31,-8.5 13.5,-5 22,-10 8.5,-5 8.5,-9 0,-4 -8,-9 -8,-5 -21.5,-9.5 -13.5,-4.5 -31,-8 Q 478,141 459,141 Z m 89,133 -132,0 -23,-34 -49,0 15,34 -15,0 0,7 -26,0 0,47 26,0 0,7 16,0 -16,35 49,0 24,-35 131,0 q 18,0 35,-3.5 17,-3.5 30.5,-8.5 13.5,-5 22,-10 8.5,-5 8.5,-9 0,-4 -8,-9 -8,-5 -21.5,-9.5 Q 601,281 584,277.5 567,274 548,274 Z m 95,130 -132,0 -23,-34 -49,0 16,34 -16,0 0,6 -25,0 0,48 25,0 0,7 16,0 -16,35 49,0 24,-35 131,0 q 18,0 35.5,-3.5 17.5,-3.5 31,-8.5 13.5,-5 22,-10 8.5,-5 8.5,-9 0,-4 -8,-9 -8,-5 -21.5,-9.5 -13.5,-4.5 -31,-8 Q 662,404 643,404 Z"
       id="path6"
       inkscape:connector-curvature="0"
       style="fill:#000000;fill-opacity:1" />
  </g>
</svg>
