<?xml version="1.0" encoding="UTF-8" standalone="no"?>
<svg
   xmlns:dc="http://purl.org/dc/elements/1.1/"
   xmlns:cc="http://creativecommons.org/ns#"
   xmlns:rdf="http://www.w3.org/1999/02/22-rdf-syntax-ns#"
   xmlns:svg="http://www.w3.org/2000/svg"
   xmlns="http://www.w3.org/2000/svg"
   xmlns:sodipodi="http://sodipodi.sourceforge.net/DTD/sodipodi-0.dtd"
   xmlns:inkscape="http://www.inkscape.org/namespaces/inkscape"
   viewBox="0 -200 1025 1000"
   id="svg2"
   version="1.1"
   inkscape:version="0.91 r13725"
   sodipodi:docname="Ntilde_xwing-miniatures.svg">
  <metadata
     id="metadata12">
    <rdf:RDF>
      <cc:Work
         rdf:about="">
        <dc:format>image/svg+xml</dc:format>
        <dc:type
           rdf:resource="http://purl.org/dc/dcmitype/StillImage" />
      </cc:Work>
    </rdf:RDF>
  </metadata>
  <defs
     id="defs10" />
  <sodipodi:namedview
     pagecolor="#ffffff"
     bordercolor="#666666"
     borderopacity="1"
     objecttolerance="10"
     gridtolerance="10"
     guidetolerance="10"
     inkscape:pageopacity="0"
     inkscape:pageshadow="2"
     inkscape:window-width="1920"
     inkscape:window-height="1016"
     id="namedview8"
     showgrid="false"
     inkscape:zoom="0.236"
     inkscape:cx="520.97458"
     inkscape:cy="500"
     inkscape:window-x="0"
     inkscape:window-y="27"
     inkscape:window-maximized="1"
     inkscape:current-layer="svg2" />
  <g
     transform="matrix(1,0,0,-1,-20.5,606)"
     id="g4"
     style="fill:#000000;fill-opacity:1">
    <path
       d="m 736,314 3,16 q 1,-5 1.5,-10.5 0.5,-5.5 0.5,-13.5 0,-6 -0.5,-12.5 Q 740,287 739,281 l -3,14 -20,2 -13,-24 12,-29 18,5 q -1,-2 -1.5,-4 -0.5,-2 -1.5,-4 -2,-6 -4,-8 l -16,-4 -16,-28 5,-16 q -4,-5 -7,-8 -3,-3 -6,-7 -5,-6 -15,-13 l 14,22 -6,15 -29,-5 -13,-25 9,-16 24,6 q -6,-4 -11.5,-8 -5.5,-4 -11.5,-8 -6,-4 -12,-7.5 -6,-3.5 -13,-6.5 l 12,17 -10,14 -31,-3 -18,-23 13,-15 7,1 q -6,-3 -13,-3 -3,-1 -6.5,-1.5 Q 572,110 569,109 l -11,13 -33,0 -11,-13 q -15,3 -27,6 l 7,-1 12,15 -18,23 -30,3 -10,-14 13,-17 q -12,6 -26,14 l -12,8 q 0,0 -11,8 l 24,-6 10,16 -13,25 -30,5 -7,-15 15,-22 q -5,3 -8,6 l -7,7 -6.5,6.5 q 0,0 -6.5,8.5 l 6,16 -16,28 -17,4 q -2,2 -4,8 -2,6 -2,8 l 17,-5 13,29 -14,24 -20,-2 -4,-14 q 0,9 -1,13 l 0,12 0,13 q 1,4 1,11 l 4,-16 20,-2 14,24 -13,29 -19,-6 2,6 2,6 q 1,6 4,11 l 17,4 16,28 -6,16 q 3,4 6.5,7.5 3.5,3.5 6.5,7.5 4,3 7,6.5 3,3.5 8,6.5 l -15,-22 7,-15 30,5 13,25 -10,16 -24,-6 q 5,4 11,8 l 12,8 q 0,0 12.5,7 12.5,7 13.5,7 l -13,-17 10,-15 30,4 18,23 -12,15 -7,-1 q 3,1 6.5,1.5 3.5,0.5 6.5,1.5 4,1 7,1.5 3,0.5 7,0.5 l 11,-12 33,0 11,12 q 5,0 13,-2 3,-1 6.5,-1.5 3.5,-0.5 6.5,-1.5 l -7,1 -13,-15 18,-23 31,-4 10,15 -12,17 q 7,-4 13,-7 6,-3 12,-7 6,-4 11.5,-8 5.5,-4 11.5,-8 l -24,6 -9,-16 13,-25 29,-5 6,15 -14,22 q 5,-3 8.5,-6.5 L 686,445 q 3,-4 6,-7.5 3,-3.5 7,-7.5 l -5,-16 16,-28 16,-4 q 2,-5 4,-11 l 2,-6 2,-6 -19,6 -12,-29 13,-24 z m -94,68 17,-30 27,-5 9,26 -17,31 -27,4 z m -136,69 18,-21 35,0 16,21 -16,22 -35,0 z m 53,-177 16,30 -16,30 -36,0 -17,-30 17,-30 36,0 z m 0,-17 -35,0 -18,-26 18,-28 35,0 16,28 z m 0,96 16,27 -16,28 -35,0 -18,-28 18,-27 35,0 z m -113,64 10,-26 35,0 18,30 -15,22 -30,-2 z m -2,-76 15,-28 32,1 18,30 -15,28 -32,-1 z m -58,32 10,-26 27,5 18,30 -10,26 -27,-4 z m 0,-68 13,-27 28,-4 17,30 -17,30 -28,-1 z m 55,-79 -18,31 -27,3 -10,-25 18,-30 27,-5 z m 21,14 32,-2 15,29 -18,29 -32,2 -15,-29 z m 50,-52 -18,30 -34,0 -12,-25 17,-25 29,-2 z m 63,-31 -16,22 -35,0 -18,-22 18,-21 35,0 z m 62,35 -11,26 -35,0 -17,-29 15,-23 30,2 z m 2,78 -16,28 -32,-2 -17,-29 15,-29 31,2 z m 0,71 -19,30 -31,1 -15,-28 17,-30 32,-1 z m 0,74 -19,25 -29,3 -17,-21 17,-31 35,0 z m 56,-180 -9,25 -27,-3 -17,-31 9,-26 27,5 z m 4,70 -13,27 -28,4 -16,-31 16,-30 27,1 z m 321,-96 5,-3 -1,-6 Q 1004,110 955,34 l -3,-5 -6,2 -13,3 q -16,5 -28,8 -46,-64 -108,-107 2,-8 4,-14.5 2,-6.5 4,-14.5 l 3,-13 2,-6 -5,-3 q -76,-49 -165,-69 l -6,-1 -3,5 -7,12 q -4,7 -7.5,13 -3.5,6 -7.5,13 -19,-4 -38,-5.5 -19,-1.5 -38,-1.5 -19,0 -37.5,1.5 -18.5,1.5 -38.5,5.5 -4,-7 -7.5,-13 -3.5,-6 -6.5,-13 l -7,-12 -3,-5 -6,1 q -91,20 -165,69 l -5,3 1,6 4,13 q 2,8 3.5,14.5 Q 267,-73 269,-65 206,-21 162,42 154,40 147.5,38 141,36 133,34 l -13,-3 -6,-2 -3,5 Q 61,111 43,200 l -2,6 6,3 11,6 q 7,4 13,7.5 6,3.5 13,7.5 -3,20 -5,38.5 -2,18.5 -2,37.5 0,19 2,38 2,19 5,38 -7,4 -13,7.5 -6,3.5 -13,7.5 l -11,7 -6,3 2,6 q 18,88 68,165 l 3,5 6,-2 13,-3 q 8,-2 14.5,-4 6.5,-2 14.5,-4 22,32 49,58.5 27,26.5 58,49.5 -2,7 -3.5,14 -1.5,7 -3.5,14 l -4,13 -1,6 5,3 q 74,49 165,69 l 6,1 3,-5 7,-12 q 6,-13 14,-25 39,6 76,6 38,0 76,-6 4,6 7.5,12.5 3.5,6.5 7.5,12.5 l 7,12 3,5 6,-1 q 88,-20 165,-69 l 5,-3 -2,-6 -3,-13 -4,-14 -4,-14 q 63,-45 108,-108 l 14,4 14,4 13,3 6,2 3,-5 q 49,-76 69,-165 l 1,-6 -5,-3 -12,-7 q -6,-4 -12.5,-7.5 Q 989,386 983,382 q 6,-38 6,-76 0,-37 -6,-76 6,-4 12.5,-7.5 6.5,-3.5 12.5,-7.5 z m -281,15 q 16,36 16,82 0,46 -16,84 -8,20 -20,37 -12,17 -26,32 -32,30 -69,46 -37,17 -84,17 -46,0 -83,-17 -38,-16 -68,-46 -30,-30 -46,-69 -17,-40 -17,-84 0,-43 17,-82 17,-41 46,-68 27,-29 68,-46 40,-17 83,-17 44,0 84,17 40,17 69,46 30,30 46,68 z"
       id="path6"
       style="fill:#000000;fill-opacity:1"
       inkscape:connector-curvature="0" />
  </g>
</svg>
