<?xml version="1.0" encoding="UTF-8" standalone="no"?>
<svg
   xmlns:dc="http://purl.org/dc/elements/1.1/"
   xmlns:cc="http://creativecommons.org/ns#"
   xmlns:rdf="http://www.w3.org/1999/02/22-rdf-syntax-ns#"
   xmlns:svg="http://www.w3.org/2000/svg"
   xmlns="http://www.w3.org/2000/svg"
   xmlns:sodipodi="http://sodipodi.sourceforge.net/DTD/sodipodi-0.dtd"
   xmlns:inkscape="http://www.inkscape.org/namespaces/inkscape"
   viewBox="0 -200 1000 1000"
   id="svg2"
   version="1.1"
   inkscape:version="0.91 r13725"
   sodipodi:docname="oacute_xwing-miniatures.svg">
  <metadata
     id="metadata12">
    <rdf:RDF>
      <cc:Work
         rdf:about="">
        <dc:format>image/svg+xml</dc:format>
        <dc:type
           rdf:resource="http://purl.org/dc/dcmitype/StillImage" />
      </cc:Work>
    </rdf:RDF>
  </metadata>
  <defs
     id="defs10" />
  <sodipodi:namedview
     pagecolor="#ffffff"
     bordercolor="#666666"
     borderopacity="1"
     objecttolerance="10"
     gridtolerance="10"
     guidetolerance="10"
     inkscape:pageopacity="0"
     inkscape:pageshadow="2"
     inkscape:window-width="1920"
     inkscape:window-height="1016"
     id="namedview8"
     showgrid="false"
     inkscape:zoom="0.236"
     inkscape:cx="508.47458"
     inkscape:cy="491.52542"
     inkscape:window-x="0"
     inkscape:window-y="27"
     inkscape:window-maximized="1"
     inkscape:current-layer="svg2" />
  <g
     transform="matrix(1,0,0,-1,12.5,600.5)"
     id="g4"
     style="fill:#000000;fill-opacity:1">
    <path
       d="M 935,333 Q 941,245 914,162 905,136 893.5,110.5 882,85 867,62 l -1,-2 0,-3 q -1,-35 -1.5,-71 -0.5,-36 -0.5,-72 -36,1 -72,1 -36,0 -71,1 l -3,0 -2,-1 q -6,-4 -12,-7.5 -6,-3.5 -13,-6.5 -81,-42 -172,-48 -8,-1 -16,-1 l -16,0 q -72,0 -138,22 -27,9 -53,21 -26,12 -50,28 l -2,1 -2,0 q -35,0 -70.5,0.5 -35.5,0.5 -70.5,1.5 1,35 1,70.5 0,35.5 1,70.5 l 0,2 -1,2 Q 98,78 94.5,84 91,90 88,97 46,178 40,269 q -6,87 21,170 17,53 45,98 l 1,2 0,2 q 1,37 1.5,73 0.5,36 0.5,73 36,-1 72,-1.5 36,-0.5 72,-0.5 l 2,-1 2,2 q 7,4 13.5,7.5 6.5,3.5 13.5,6.5 81,42 171,48 8,1 16,1 l 16,0 q 73,0 139,-22 52,-16 95,-43 l 2,-2 3,0 q 36,0 72,-0.5 36,-0.5 73,-1.5 -1,-35 -1,-70.5 0,-35.5 -1,-70.5 l 0,-2 1,-2 q 5,-8 9,-15.5 4,-7.5 8,-15.5 42,-81 48,-171 z M 867,177 q 24,74 19,152 -6,79 -43,153 l -15,27 -2,2 -7,12 0,14 0,3 1,70 1,21 -23,1 -73,1 -2,0 -14,0 -12,7 -2,1 q -20,13 -40.5,22 -20.5,9 -43.5,17 -62,20 -124,20 l -14,0 q 0,0 -14,-1 -82,-6 -153,-43 l -12,-6 q 0,0 -11,-7 l -3,-1 -12,-7 -14,0 -2,0 -94,1 0,-23 -1,-72 0,-3 -1,-13 -7,-12 -1,-2 Q 124,472 108,424 83,348 89,272 q 6,-82 43,-153 3,-5 6,-11 l 6,-12 2,-2 7,-12 -1,-14 0,-2 -1,-70 0,-21 21,-1 70,-1 3,0 14,0 12,-8 2,-1 q 44,-28 91,-43 62,-20 123,-20 8,0 14.5,0.5 6.5,0.5 14.5,0.5 79,6 153,43 5,3 11,6 6,3 11,7 l 2,1 12,7 14,0 2,0 q 24,-1 47.5,-1 23.5,0 46.5,-1 l 1,94 0,2 0,14 8,12 1,2 q 27,41 42,89 z M 487,343 q 16,0 27,-11 11,-11 11,-26 0,-16 -11,-27 -11,-11 -27,-11 -15,0 -26,11 -11,11 -11,27 0,15 11,26 11,11 26,11 z m 296,-75 -58,21 q -2,-32 -12,-61 -10,-29 -27,-54 l 0,-67 -67,0 Q 590,88 557,77.5 524,67 487,67 l -3,0 -34,-57 21,58 q -32,2 -61,12 -29,10 -54,27 l -67,0 0,67 q -19,29 -29.5,62 -10.5,33 -10.5,70 l 0,3 -58,34 59,-21 q 2,32 12,61 10,29 27,54 l 0,67 67,0 q 28,19 61.5,29.5 Q 451,544 487,544 l 4,0 34,57 -21,-58 q 63,-5 115,-39 l 67,0 0,-67 Q 705,409 715.5,375.5 726,342 726,306 q 0,-2 -0.5,-2.5 Q 725,303 725,302 Z m -299,219 3,0 q 34,0 64,-11.5 Q 581,464 604.5,444 628,424 644,396.5 660,369 666,337 l 28,-17 q -3,40 -19.5,74.5 Q 658,429 631,455 604,481 568.5,496.5 533,512 493,513 Z m -12,26 Q 433,510 398.5,493.5 364,477 338,450 312,423 296.5,387.5 281,352 280,312 l 26,-10 0,4 q 0,33 11.5,63 11.5,30 31.5,53.5 20,23.5 47.5,39.5 27.5,16 59.5,22 z m 18,-389 -3,0 q -33,0 -63,11.5 Q 394,147 370.5,167 347,187 331,214.5 315,242 309,274 l -29,17 q 3,-40 19.5,-74.5 Q 316,182 343,156 370,130 405.5,114.5 441,99 481,98 Z m -3,20 q 3,0 5.5,0.5 2.5,0.5 5.5,0.5 l 12,34 -87,1 30,81 q 15,-12 34,-12 5,0 9.5,1 4.5,1 8.5,2 l -1,-1 -22,-39 87,0 -36,-61 q 51,15 83.5,57 32.5,42 32.5,98 0,2 -0.5,5 -0.5,3 -0.5,5 l -34,12 -1,-87 -81,30 q 5,8 8.5,16 3.5,8 3.5,19 0,5 -1,9 -1,4 -3,9 l 2,-1 39,-23 0,87 61,-36 Q 627,402 584.5,434.5 542,467 487,467 q -7,0 -10,-1 l -12,-33 87,-2 -30,-81 q -17,12 -35,12 -9,0 -18,-3 l 1,1 23,40 -87,0 35,60 Q 391,445 358.5,403 326,361 326,306 q 0,-7 1,-11 l 33,-12 2,87 81,-30 q -12,-15 -12,-34 0,-10 3,-19 l -2,2 -39,22 0,-87 -60,36 q 15,-51 57,-83.5 42,-32.5 97,-32.5 z m 15,-45 q 40,3 74.5,19.5 34.5,16.5 60.5,43.5 26,27 41.5,62 15.5,35 16.5,75 l -26,10 0,-3 Q 669,272 657.5,242 646,212 626,188.5 606,165 578.5,149 551,133 519,127 Z"
       id="path6"
       inkscape:connector-curvature="0"
       style="fill:#000000;fill-opacity:1" />
  </g>
</svg>
