<?xml version="1.0" encoding="UTF-8" standalone="no"?>
<svg
   xmlns:dc="http://purl.org/dc/elements/1.1/"
   xmlns:cc="http://creativecommons.org/ns#"
   xmlns:rdf="http://www.w3.org/1999/02/22-rdf-syntax-ns#"
   xmlns:svg="http://www.w3.org/2000/svg"
   xmlns="http://www.w3.org/2000/svg"
   xmlns:sodipodi="http://sodipodi.sourceforge.net/DTD/sodipodi-0.dtd"
   xmlns:inkscape="http://www.inkscape.org/namespaces/inkscape"
   viewBox="0 -315 1000 1000"
   id="svg2"
   version="1.1"
   inkscape:version="0.91 r13725"
   sodipodi:docname="ocircumflex_xwing-miniatures.svg"
   width="1000"
   height="1000">
  <metadata
     id="metadata12">
    <rdf:RDF>
      <cc:Work
         rdf:about="">
        <dc:format>image/svg+xml</dc:format>
        <dc:type
           rdf:resource="http://purl.org/dc/dcmitype/StillImage" />
        <dc:title></dc:title>
      </cc:Work>
    </rdf:RDF>
  </metadata>
  <defs
     id="defs10" />
  <sodipodi:namedview
     pagecolor="#ffffff"
     bordercolor="#666666"
     borderopacity="1"
     objecttolerance="10"
     gridtolerance="10"
     guidetolerance="10"
     inkscape:pageopacity="0"
     inkscape:pageshadow="2"
     inkscape:window-width="1920"
     inkscape:window-height="1016"
     id="namedview8"
     showgrid="false"
     inkscape:zoom="0.236"
     inkscape:cx="610.97458"
     inkscape:cy="491.52542"
     inkscape:window-x="0"
     inkscape:window-y="27"
     inkscape:window-maximized="1"
     inkscape:current-layer="svg2" />
  <g
     transform="matrix(0.84817642,0,0,-0.84817642,-21.424308,417.82443)"
     id="g4"
     style="fill:#000000;fill-opacity:1">
    <path
       d="m 1192,443 q 13,-61 12.5,-123 -0.5,-62 -15,-121.5 Q 1175,139 1147.5,84 1120,29 1080,-19 q -11,-27 -21,-54 l -20,-54 Q 891,-175 745.5,-221 600,-267 453,-315 q -35,71 -71,141 -36,70 -71,141 l -1,2 -3,2 Q 236,6 166,41.5 96,77 25,113 73,260 119,405.5 165,551 213,698 q 26,11 53,20.5 27,9.5 53,19.5 75,62 164.5,94 89.5,32 184.5,32 58,0 115,-12 l 29,-30 2,-2 3,0 q 75,-11 150,-21.5 75,-10.5 150,-21.5 11,-75 21.5,-150 10.5,-75 21.5,-150 l 1,-3 2,-2 z M 1042,13 q 70,85 97.5,191 27.5,106 6.5,214 l -18,19 -2,2 -12,12 -2,16 -1,3 -19,136 -19,127 -263,38 -3,0 -16,3 -12,12 -2,2 -18,18 q -45,9 -91,9 -88,0 -169,-29.5 Q 418,756 351,700 l -7,-5 -8,-3 -52,-20 -31,-11 Q 211,529 169,399 127,269 85,138 147,107 207.5,76.5 268,46 329,15 l 3,-2 14,-7 8,-14 1,-3 57,-112 66,-132 523,167 33,87 3,8 z M 935,589 897,516 866,548 Z M 622,402 683,438 786,321 747,259 Z m 94,-195 -43,-82 -174,204 75,45 z m 26,265 47,28 61,-67 -27,-48 z m -251,78 q 77,75 187,71 l 4,0 q 68,-2 138,-33 l -52,-33 q -44,14 -85,15 l -5,0 -4,0 q -80,3 -137,-50 -58,-52 -79,-148 l -54,-31 q 11,136 87,209 z M 561,-77 529,174 301,221 461,309 651,86 Z M 921,174 Q 890,110 824,65 760,22 672,14 l 0,3 1,2 9,20 16,38 q 83,5 143,78 62,76 65,172 1,40 -8,78 l 33,58 q 27,-74 24,-149 -3,-77 -34,-140 z"
       id="path6"
       inkscape:connector-curvature="0"
       style="fill:#000000;fill-opacity:1" />
  </g>
</svg>
