<?xml version="1.0" encoding="UTF-8" standalone="no"?>
<svg
   xmlns:dc="http://purl.org/dc/elements/1.1/"
   xmlns:cc="http://creativecommons.org/ns#"
   xmlns:rdf="http://www.w3.org/1999/02/22-rdf-syntax-ns#"
   xmlns:svg="http://www.w3.org/2000/svg"
   xmlns="http://www.w3.org/2000/svg"
   xmlns:sodipodi="http://sodipodi.sourceforge.net/DTD/sodipodi-0.dtd"
   xmlns:inkscape="http://www.inkscape.org/namespaces/inkscape"
   viewBox="0 -200 1000 1000"
   id="svg2"
   version="1.1"
   inkscape:version="0.91 r13725"
   sodipodi:docname="Odieresis_xwing-miniatures.svg">
  <metadata
     id="metadata12">
    <rdf:RDF>
      <cc:Work
         rdf:about="">
        <dc:format>image/svg+xml</dc:format>
        <dc:type
           rdf:resource="http://purl.org/dc/dcmitype/StillImage" />
      </cc:Work>
    </rdf:RDF>
  </metadata>
  <defs
     id="defs10" />
  <sodipodi:namedview
     pagecolor="#ffffff"
     bordercolor="#666666"
     borderopacity="1"
     objecttolerance="10"
     gridtolerance="10"
     guidetolerance="10"
     inkscape:pageopacity="0"
     inkscape:pageshadow="2"
     inkscape:window-width="1920"
     inkscape:window-height="1016"
     id="namedview8"
     showgrid="false"
     inkscape:zoom="0.236"
     inkscape:cx="508.47458"
     inkscape:cy="500"
     inkscape:window-x="0"
     inkscape:window-y="27"
     inkscape:window-maximized="1"
     inkscape:current-layer="svg2" />
  <g
     transform="matrix(1,0,0,-1,31,603.5)"
     id="g4"
     style="fill:#000000;fill-opacity:1">
    <path
       d="M 646,450 Q 669,421 682.5,384.5 696,348 696,307 696,260 678,218.5 660,177 629.5,146.5 599,116 557.5,98 516,80 469,80 428,80 391.5,93.5 355,107 326,131 Z M 481,259 q 3,-3 6,-5.5 3,-2.5 6,-4.5 10,-10 19,-16 5,-3 8.5,-5.5 3.5,-2.5 6.5,-4.5 4,-2 10,-4 10,-4 13,1 3,3 0,12 -3,3 -6,9 -2,3 -4.5,6.5 -2.5,3.5 -6.5,7.5 -3,5 -7,9.5 -4,4.5 -9,9.5 l -10,10 z m 128,-70 q 3,15 2,31 0,19 -6,40 -3,11 -7.5,22.5 -4.5,11.5 -9.5,23.5 -1,-5 -1,-10 0,-5 -1,-10 -2,-8 -4,-13 -1,-7 -4,-7 -1,0 -4,4 l -6,9 q -2,3 -3.5,6 l -3.5,7 -9,15 q -2,4 -4,7.5 -2,3.5 -4,7.5 l -27,-27 q 5,-8 10.5,-15.5 5.5,-7.5 10.5,-15.5 6,-8 10.5,-15.5 4.5,-7.5 9.5,-15.5 4,-7 7.5,-13 3.5,-6 5.5,-11 4,-9 2,-13 -8,-11 -31,1 -24,12 -67,49 l -3,3 -40,-40 q 8,-4 13,-6 l 12,-6 q 0,0 12,-5 6,-3 11.5,-5.5 5.5,-2.5 10.5,-4.5 5,-2 8.5,-4 3.5,-2 6.5,-4 2,-1 5,-1 1,0 2,-1 17,-7 36,-10 10,-2 15,-2 3,-1 6.5,-1 l 6.5,0 q 4,0 6.5,0.5 2.5,0.5 5.5,1.5 4,2 8,6 8,9 12,22 z M 469,534 q 42,0 79.5,-14 Q 586,506 616,480 L 296,160 q -26,30 -40,67.5 -14,37.5 -14,79.5 0,47 18,88.5 18,41.5 48.5,72 30.5,30.5 72,48.5 41.5,18 88.5,18 z M 391,292 q -7,3 -13,6 -6,3 -11,5 -9,4 -15,9 -3,2 -5.5,3.5 -2.5,1.5 -4.5,3.5 6,-7 12,-13 l 13,-13 q 3,-3 6.5,-6 3.5,-3 6.5,-7 z m 20,18 q -1,1 -12.5,10 -11.5,9 -26.5,21 -15,12 -29.5,24.5 Q 328,378 321,384 l 80,-83 z m 32,34 q -4,3 -7.5,6.5 Q 432,354 428,357 412,371 398.5,381.5 385,392 373,402 359,413 346,422.5 333,432 321,441 330,429 340.5,416.5 351,404 362,390 q 10,-11 21,-25 11,-14 25,-29 3,-4 6.5,-7.5 L 421,322 Z m 26,25 q -5,5 -10,8.5 -5,3.5 -10,8.5 2,-3 3.5,-7 1.5,-4 3.5,-9 l 4,-10 z m 0,371 q 90,0 170,-34.5 Q 719,671 778,612 837,553 871.5,473 906,393 906,303 906,213 871.5,133.5 837,54 778,-5.5 719,-65 639,-99 559,-133 469,-133 379,-133 299,-99 219,-65 160,-5.5 101,54 66.5,133.5 32,213 32,303 q 0,90 34.5,170 34.5,80 93.5,139 59,59 139,93.5 80,34.5 170,34.5 z m 0,-702 q 56,0 105,21 49,21 86,57.5 37,36.5 58,85.5 21,49 21,105 0,56 -21,105 -21,49 -58,86 -37,37 -86,58 -49,21 -105,21 -56,0 -105,-21 -49,-21 -86,-58 -37,-37 -58,-86 -21,-49 -21,-105 0,-56 21,-105 21,-49 58,-85.5 Q 315,80 364,59 413,38 469,38 Z"
       id="path6"
       style="fill:#000000;fill-opacity:1"
       inkscape:connector-curvature="0" />
  </g>
</svg>
