<?xml version="1.0" encoding="UTF-8" standalone="no"?>
<svg
   xmlns:dc="http://purl.org/dc/elements/1.1/"
   xmlns:cc="http://creativecommons.org/ns#"
   xmlns:rdf="http://www.w3.org/1999/02/22-rdf-syntax-ns#"
   xmlns:svg="http://www.w3.org/2000/svg"
   xmlns="http://www.w3.org/2000/svg"
   xmlns:sodipodi="http://sodipodi.sourceforge.net/DTD/sodipodi-0.dtd"
   xmlns:inkscape="http://www.inkscape.org/namespaces/inkscape"
   viewBox="0 -289 1000 1000"
   id="svg2"
   version="1.1"
   inkscape:version="0.91 r13725"
   sodipodi:docname="ograve_xwing-miniatures.svg"
   width="1000"
   height="1000">
  <metadata
     id="metadata12">
    <rdf:RDF>
      <cc:Work
         rdf:about="">
        <dc:format>image/svg+xml</dc:format>
        <dc:type
           rdf:resource="http://purl.org/dc/dcmitype/StillImage" />
        <dc:title />
      </cc:Work>
    </rdf:RDF>
  </metadata>
  <defs
     id="defs10" />
  <sodipodi:namedview
     pagecolor="#ffffff"
     bordercolor="#666666"
     borderopacity="1"
     objecttolerance="10"
     gridtolerance="10"
     guidetolerance="10"
     inkscape:pageopacity="0"
     inkscape:pageshadow="2"
     inkscape:window-width="1920"
     inkscape:window-height="1016"
     id="namedview8"
     showgrid="false"
     inkscape:zoom="0.236"
     inkscape:cx="27.983055"
     inkscape:cy="491.52542"
     inkscape:window-x="0"
     inkscape:window-y="27"
     inkscape:window-maximized="1"
     inkscape:current-layer="svg2" />
  <g
     transform="matrix(0.74515648,0,0,-0.74515648,-26.825631,428.21311)"
     id="g4"
     style="fill:#000000;fill-opacity:1">
    <path
       d="m 1272,571 q 22,0 41.5,-8.5 19.5,-8.5 33.5,-23 14,-14.5 22.5,-33.5 8.5,-19 8.5,-41 l 0,-353 q 0,-22 -8,-41 -8,-19 -22.5,-33.5 Q 1333,23 1314,14.5 1295,6 1274,6 l -173,44 -15,3 5,-13 68,-223 q 0,-22 -8.5,-41 -8.5,-19 -22.5,-33.5 -14,-14.5 -33.5,-23 -19.5,-8.5 -41.5,-8.5 l -688,0 q -22,0 -41,8.5 -19,8.5 -33.5,22.5 -14.5,14 -23,32.5 -8.5,18.5 -8.5,39.5 l 69,226 4,13 -14,-3 Q 273,39 229.5,28.5 186,18 141,7 119,7 100,15 81,23 66.5,37.5 52,52 44,71 36,90 36,112 l 0,353 q 0,22 8,41 8,19 22.5,33.5 14.5,14.5 33.5,23 19,8.5 40,8.5 l 178,-44 14,-3 -4,14 -68,228 q 0,22 8,41.5 8,19.5 22.5,33.5 14.5,14 33.5,22.5 19,8.5 41,8.5 l 688,0 q 22,0 41.5,-8 19.5,-8 33.5,-22.5 14,-14.5 22.5,-33 8.5,-18.5 8.5,-39.5 l -68,-231 -4,-14 14,3 z m 57,-106 q 0,22 -15,38 -15,16 -36,18 l -165,-41 -14,-4 -84,-21 24,83 4,14 66,223 q -2,20 -18,33.5 -16,13.5 -38,13.5 l -688,0 Q 343,822 327.5,808 312,794 310,773 l 65,-221 5,-14 24,-82 -83,20 -14,3 -172,42 Q 115,519 100,503 85,487 85,465 l 0,-353 q 0,-22 15,-38 15,-16 36,-18 l 70,18 101,24 14,3 84,21 -25,-83 -5,-14 -66,-216 q 3,-20 19,-34 16,-14 37,-14 l 688,0 q 22,0 38,14.5 16,14.5 18,35.5 l -66,214 -4,14 -25,84 84,-22 15,-3 166,-42 q 21,2 35.5,18.5 Q 1329,91 1329,112 l 0,353 z M 1095,292 927,209 911,222 Q 894,174 859.5,139 825,104 777,88 L 790,71 707,-96 624,71 637,88 q -48,16 -82.5,51 -34.5,35 -51.5,83 l -16,-13 -168,83 168,83 16,-14 q 17,48 51.5,83 34.5,35 82.5,52 l -13,16 83,168 83,-168 -13,-16 q 48,-17 82.5,-52 34.5,-35 51.5,-83 l 16,14 z m -271,0 64,51 q -14,48 -48,82 -34,34 -82,48 l -51,-65 -52,65 q -47,-14 -81,-48 -34,-34 -48,-82 l 64,-51 -64,-52 q 14,-47 48,-81.5 34,-34.5 81,-47.5 l 52,64 51,-64 q 48,13 82,47.5 34,34.5 48,81.5 z"
       id="path6"
       inkscape:connector-curvature="0"
       style="fill:#000000;fill-opacity:1" />
  </g>
</svg>
