<?xml version="1.0" encoding="UTF-8" standalone="no"?>
<svg
   xmlns:dc="http://purl.org/dc/elements/1.1/"
   xmlns:cc="http://creativecommons.org/ns#"
   xmlns:rdf="http://www.w3.org/1999/02/22-rdf-syntax-ns#"
   xmlns:svg="http://www.w3.org/2000/svg"
   xmlns="http://www.w3.org/2000/svg"
   xmlns:sodipodi="http://sodipodi.sourceforge.net/DTD/sodipodi-0.dtd"
   xmlns:inkscape="http://www.inkscape.org/namespaces/inkscape"
   viewBox="0 -200 1000 1000"
   id="svg2"
   version="1.1"
   inkscape:version="0.91 r13725"
   sodipodi:docname="r_xwing-miniatures.svg"
   width="1000"
   height="1000">
  <metadata
     id="metadata12">
    <rdf:RDF>
      <cc:Work
         rdf:about="">
        <dc:format>image/svg+xml</dc:format>
        <dc:type
           rdf:resource="http://purl.org/dc/dcmitype/StillImage" />
        <dc:title></dc:title>
      </cc:Work>
    </rdf:RDF>
  </metadata>
  <defs
     id="defs10" />
  <sodipodi:namedview
     pagecolor="#ffffff"
     bordercolor="#666666"
     borderopacity="1"
     objecttolerance="10"
     gridtolerance="10"
     guidetolerance="10"
     inkscape:pageopacity="0"
     inkscape:pageshadow="2"
     inkscape:window-width="1920"
     inkscape:window-height="1016"
     id="namedview8"
     showgrid="false"
     inkscape:zoom="0.236"
     inkscape:cx="636.97458"
     inkscape:cy="491.52542"
     inkscape:window-x="0"
     inkscape:window-y="27"
     inkscape:window-maximized="1"
     inkscape:current-layer="svg2" />
  <g
     transform="matrix(0.81499593,0,0,-0.81499593,-24.449881,554.27873)"
     id="g4"
     style="fill:#000000;fill-opacity:1">
    <path
       d="M 475,63 273,69 263,-21 30,186 311,283 301,199 q 107,-8 137,-8 224,0 315,102 31,56 31,100 l 0,1 q -1,44 -31,92 -50,53 -99,53 -44,-7 -54.5,-13 Q 589,520 580,513 571,506 565,503 546,479 540.5,465.5 535,452 532.5,446 530,440 528,431 l -2,-12 0,-13 0,-11 q -1,-1 -1,-4 0,-20 25,-64 26,-45 63,-65 -2,0 -5.5,-2.5 Q 604,257 595,253 q -9,-4 -23,-8 -38,-11 -109,-14 -62,94 -62,178.5 0,84.5 76,180.5 98,76 180,77 l 3,0 q 83,-2 171,-72 76,-104 77,-201 l 0,-1 Q 908,297 827,184 748,113 663,88 578,63 475,63 Z M 1019,264 1257,67 959,-43 973,67 769,82 q 32,11 60,34.5 28,23.5 69,71.5 l 109,-7 z"
       id="path6"
       inkscape:connector-curvature="0"
       style="fill:#000000;fill-opacity:1" />
  </g>
</svg>
