<?xml version="1.0" encoding="UTF-8" standalone="no"?>
<svg
   xmlns:dc="http://purl.org/dc/elements/1.1/"
   xmlns:cc="http://creativecommons.org/ns#"
   xmlns:rdf="http://www.w3.org/1999/02/22-rdf-syntax-ns#"
   xmlns:svg="http://www.w3.org/2000/svg"
   xmlns="http://www.w3.org/2000/svg"
   xmlns:sodipodi="http://sodipodi.sourceforge.net/DTD/sodipodi-0.dtd"
   xmlns:inkscape="http://www.inkscape.org/namespaces/inkscape"
   viewBox="0 -234 1000 1000"
   id="svg2"
   version="1.1"
   inkscape:version="0.91 r13725"
   sodipodi:docname="k_xwing-miniatures.svg">
  <metadata
     id="metadata12">
    <rdf:RDF>
      <cc:Work
         rdf:about="">
        <dc:format>image/svg+xml</dc:format>
        <dc:type
           rdf:resource="http://purl.org/dc/dcmitype/StillImage" />
        <dc:title />
      </cc:Work>
    </rdf:RDF>
  </metadata>
  <defs
     id="defs10" />
  <sodipodi:namedview
     pagecolor="#ffffff"
     bordercolor="#666666"
     borderopacity="1"
     objecttolerance="10"
     gridtolerance="10"
     guidetolerance="10"
     inkscape:pageopacity="0"
     inkscape:pageshadow="2"
     inkscape:window-width="1920"
     inkscape:window-height="1016"
     id="namedview8"
     showgrid="false"
     inkscape:zoom="0.236"
     inkscape:cx="-161.01695"
     inkscape:cy="491.52542"
     inkscape:window-x="0"
     inkscape:window-y="27"
     inkscape:window-maximized="1"
     inkscape:current-layer="svg2" />
  <g
     transform="matrix(0.97087379,0,0,-0.97087379,5.8252409,538.81553)"
     id="g4"
     style="fill:#000000;fill-opacity:1">
    <path
       d="m 573,721 -7,0 -5,0 Q 444,721 361,640 278,559 253,418 l -78,-48 q 8,198 117,312 109,114 271,114 l 6,0 q 99,0 205,-41 l -75,-52 q -64,18 -126,18 z m 371,41 -52,-109 -48,45 z M 733,624 827,529 789,457 666,581 Z M 580,527 738,362 685,269 493,471 Z m 319,-36 46,87 Q 988,470 988,359.5 988,249 945,153 902,57 808.5,-11.5 715,-80 587,-95 l 0,4 1,4 12,29 22,57 q 121,10 207,122 86,112 86,255 0,61 -16,115 z M 424,427 642,190 582,68 315,357 Z M 261,326 552,9 428,-234 368,132 30,189 Z"
       id="path6"
       inkscape:connector-curvature="0"
       style="fill:#000000;fill-opacity:1" />
  </g>
</svg>
