<?xml version="1.0" encoding="UTF-8" standalone="no"?>
<svg
   xmlns:dc="http://purl.org/dc/elements/1.1/"
   xmlns:cc="http://creativecommons.org/ns#"
   xmlns:rdf="http://www.w3.org/1999/02/22-rdf-syntax-ns#"
   xmlns:svg="http://www.w3.org/2000/svg"
   xmlns="http://www.w3.org/2000/svg"
   xmlns:sodipodi="http://sodipodi.sourceforge.net/DTD/sodipodi-0.dtd"
   xmlns:inkscape="http://www.inkscape.org/namespaces/inkscape"
   viewBox="0 -200 1000 1000"
   id="svg2"
   version="1.1"
   inkscape:version="0.91 r13725"
   sodipodi:docname="e_xwing-miniatures.svg">
  <metadata
     id="metadata12">
    <rdf:RDF>
      <cc:Work
         rdf:about="">
        <dc:format>image/svg+xml</dc:format>
        <dc:type
           rdf:resource="http://purl.org/dc/dcmitype/StillImage" />
      </cc:Work>
    </rdf:RDF>
  </metadata>
  <defs
     id="defs10" />
  <sodipodi:namedview
     pagecolor="#ffffff"
     bordercolor="#666666"
     borderopacity="1"
     objecttolerance="10"
     gridtolerance="10"
     guidetolerance="10"
     inkscape:pageopacity="0"
     inkscape:pageshadow="2"
     inkscape:window-width="1920"
     inkscape:window-height="1016"
     id="namedview8"
     showgrid="false"
     inkscape:zoom="0.236"
     inkscape:cx="508.47458"
     inkscape:cy="500"
     inkscape:window-x="0"
     inkscape:window-y="27"
     inkscape:window-maximized="1"
     inkscape:current-layer="svg2" />
  <g
     transform="matrix(1,0,0,-1,212,597)"
     id="g4"
     style="fill:#000000;fill-opacity:1">
    <path
       d="m 250,725 294,-97 -73,-65 q 75,-107 75,-204 l 0,-3 Q 546,265 481,179 457,154 443.5,137 430,120 427,113 424,106 421,97 418,88 416,84 419,58 427,41.5 435,25 448.5,17 462,9 474.5,7 487,5 506,5 l -45,-136 q -38,12 -68,27 -30,15 -57,39.5 Q 309,-40 295,-3 281,34 281,81 l 0,2 0,7 q 0,75 78,153 18,24 28,37 10,13 19,35 9,22 9,42 0,54 -59,116 l -106,-91 0,343 z M 231,282 Q 231,240 201,210.5 171,181 130,181 89,181 59.5,211 30,241 30,282 30,323 59.5,352.5 89,382 130,382 q 41,0 71,-29.5 30,-29.5 30,-70.5 z"
       id="path6"
       inkscape:connector-curvature="0"
       style="fill:#000000;fill-opacity:1" />
  </g>
</svg>
