<?xml version="1.0" encoding="UTF-8" standalone="no"?>
<svg
   xmlns:dc="http://purl.org/dc/elements/1.1/"
   xmlns:cc="http://creativecommons.org/ns#"
   xmlns:rdf="http://www.w3.org/1999/02/22-rdf-syntax-ns#"
   xmlns:svg="http://www.w3.org/2000/svg"
   xmlns="http://www.w3.org/2000/svg"
   xmlns:sodipodi="http://sodipodi.sourceforge.net/DTD/sodipodi-0.dtd"
   xmlns:inkscape="http://www.inkscape.org/namespaces/inkscape"
   viewBox="0 -200 1000 1000"
   id="svg2"
   version="1.1"
   inkscape:version="0.91 r13725"
   sodipodi:docname="f_xwing-miniatures.svg"
   width="1000"
   height="1000">
  <metadata
     id="metadata12">
    <rdf:RDF>
      <cc:Work
         rdf:about="">
        <dc:format>image/svg+xml</dc:format>
        <dc:type
           rdf:resource="http://purl.org/dc/dcmitype/StillImage" />
        <dc:title></dc:title>
      </cc:Work>
    </rdf:RDF>
  </metadata>
  <defs
     id="defs10" />
  <sodipodi:namedview
     pagecolor="#ffffff"
     bordercolor="#666666"
     borderopacity="1"
     objecttolerance="10"
     gridtolerance="10"
     guidetolerance="10"
     inkscape:pageopacity="0"
     inkscape:pageshadow="2"
     inkscape:window-width="1920"
     inkscape:window-height="1016"
     id="namedview8"
     showgrid="false"
     inkscape:zoom="0.236"
     inkscape:cx="533.97458"
     inkscape:cy="500"
     inkscape:window-x="0"
     inkscape:window-y="27"
     inkscape:window-maximized="1"
     inkscape:current-layer="svg2" />
  <g
     transform="matrix(0.97943193,0,0,-0.97943193,-29.382958,587.95299)"
     id="g4"
     style="fill:#000000;fill-opacity:1">
    <path
       d="m 535,550 12,0 q 86,0 162,-22 28,-9 53,-19.5 25,-10.5 45,-20 20,-9.5 41.5,-23.5 21.5,-14 35.5,-23.5 14,-9.5 33,-26.5 19,-17 29,-26 10,-9 28,-29.5 18,-20.5 25,-28.5 7,-8 26.5,-30.5 Q 1045,278 1051,270 948,106 702,60 615,38 524,38 452,38 375,54 120,98 30,268 85,374 165.5,432 246,490 373,530 q 9,2 34.5,7 25.5,5 38,6.5 12.5,1.5 37,4 Q 507,550 535,550 Z M 710,451 Q 768,385 768,297 768,233 736,179.5 704,126 650,95 q 5,1 14.5,2 9.5,1 15.5,2 49,12 77,20 28,8 70,23.5 42,15.5 69,31 27,15.5 55,40.5 28,25 46,56 Q 929,349 863.5,392 798,435 710,451 Z M 359,444 Q 271,422 203.5,374 136,326 115,270 q 19,-38 46,-66 27,-28 61.5,-47 34.5,-19 65,-30 30.5,-11 72.5,-22 42,-6 62,-8 -52,30 -83.5,83.5 Q 307,234 307,297 q 0,83 52,147 z M 531,338 q 0,-35 25.5,-60.5 Q 582,252 618,252 q 36,0 61,25.5 25,25.5 25,60.5 0,36 -25,61 -25,25 -61,25 -36,0 -61.5,-25 Q 531,374 531,338 Z"
       id="path6"
       inkscape:connector-curvature="0"
       style="fill:#000000;fill-opacity:1" />
  </g>
</svg>
