<?xml version="1.0" encoding="UTF-8" standalone="no"?>
<svg
   xmlns:dc="http://purl.org/dc/elements/1.1/"
   xmlns:cc="http://creativecommons.org/ns#"
   xmlns:rdf="http://www.w3.org/1999/02/22-rdf-syntax-ns#"
   xmlns:svg="http://www.w3.org/2000/svg"
   xmlns="http://www.w3.org/2000/svg"
   xmlns:sodipodi="http://sodipodi.sourceforge.net/DTD/sodipodi-0.dtd"
   xmlns:inkscape="http://www.inkscape.org/namespaces/inkscape"
   viewBox="0 -200 1000 1000"
   id="svg2"
   version="1.1"
   inkscape:version="0.91 r13725"
   sodipodi:docname="R_xwing-miniatures.svg">
  <metadata
     id="metadata12">
    <rdf:RDF>
      <cc:Work
         rdf:about="">
        <dc:format>image/svg+xml</dc:format>
        <dc:type
           rdf:resource="http://purl.org/dc/dcmitype/StillImage" />
      </cc:Work>
    </rdf:RDF>
  </metadata>
  <defs
     id="defs10" />
  <sodipodi:namedview
     pagecolor="#ffffff"
     bordercolor="#666666"
     borderopacity="1"
     objecttolerance="10"
     gridtolerance="10"
     guidetolerance="10"
     inkscape:pageopacity="0"
     inkscape:pageshadow="2"
     inkscape:window-width="1920"
     inkscape:window-height="1016"
     id="namedview8"
     showgrid="false"
     inkscape:zoom="0.236"
     inkscape:cx="508.47458"
     inkscape:cy="500"
     inkscape:window-x="0"
     inkscape:window-y="27"
     inkscape:window-maximized="1"
     inkscape:current-layer="svg2" />
  <g
     transform="matrix(1,0,0,-1,73,589)"
     id="g4"
     style="fill:#000000;fill-opacity:1">
    <path
       d="m 611,624 q 50,-25 89.5,-62 39.5,-37 67,-82.5 27.5,-45.5 42,-98 Q 824,329 824,274 824,193 792.5,121 761,49 707,-5 653,-59 580.5,-90.5 508,-122 427,-122 346,-122 273.5,-90.5 201,-59 147,-5 93,49 61.5,121 30,193 30,274 q 0,86 33,159 33,73 90,130 l -80,80 312,57 -62,-307 -90,85 Q 194,439 171,387 148,335 148,274 148,216 169.5,165 191,114 229,76.5 267,39 317.5,17.5 368,-4 427,-4 q 58,0 110,21.5 52,21.5 90.5,59 38.5,37.5 61,88.5 22.5,51 22.5,109 0,72 -34,132.5 -34,60.5 -94,99.5 l -5,5 24,122 z m -80,-505 -208,0 104,297 z"
       id="path6"
       inkscape:connector-curvature="0"
       style="fill:#000000;fill-opacity:1" />
  </g>
</svg>
