<?xml version="1.0" encoding="UTF-8" standalone="no"?>
<svg
   xmlns:dc="http://purl.org/dc/elements/1.1/"
   xmlns:cc="http://creativecommons.org/ns#"
   xmlns:rdf="http://www.w3.org/1999/02/22-rdf-syntax-ns#"
   xmlns:svg="http://www.w3.org/2000/svg"
   xmlns="http://www.w3.org/2000/svg"
   xmlns:sodipodi="http://sodipodi.sourceforge.net/DTD/sodipodi-0.dtd"
   xmlns:inkscape="http://www.inkscape.org/namespaces/inkscape"
   viewBox="0 -200 1000 1000"
   id="svg2"
   version="1.1"
   inkscape:version="0.91 r13725"
   sodipodi:docname="l_xwing-miniatures.svg">
  <metadata
     id="metadata12">
    <rdf:RDF>
      <cc:Work
         rdf:about="">
        <dc:format>image/svg+xml</dc:format>
        <dc:type
           rdf:resource="http://purl.org/dc/dcmitype/StillImage" />
      </cc:Work>
    </rdf:RDF>
  </metadata>
  <defs
     id="defs10" />
  <sodipodi:namedview
     pagecolor="#ffffff"
     bordercolor="#666666"
     borderopacity="1"
     objecttolerance="10"
     gridtolerance="10"
     guidetolerance="10"
     inkscape:pageopacity="0"
     inkscape:pageshadow="2"
     inkscape:window-width="1920"
     inkscape:window-height="1016"
     id="namedview8"
     showgrid="false"
     inkscape:zoom="0.236"
     inkscape:cx="508.47458"
     inkscape:cy="491.52542"
     inkscape:window-x="0"
     inkscape:window-y="27"
     inkscape:window-maximized="1"
     inkscape:current-layer="svg2" />
  <g
     transform="matrix(1,0,0,-1,7.5,603)"
     id="g4"
     style="fill:#000000;fill-opacity:1">
    <path
       d="m 200,691 569,0 -196,-216 q 87,-44 103,-141 l 279,87 0,-226 -278,89 q -5,-48 -34,-88 -29,-40 -72,-61 L 770,-85 202,-85 406,135 Q 363,156 334.5,195 306,234 300,282 L 30,195 30,421 301,336 q 16,94 99,138 z M 544,444 486,381 430,442 Q 394,427 369.5,395.5 345,364 340,324 l 47,-14 -49,-16 q 3,-44 28.5,-78.5 Q 392,181 432,164 l 57,62 56,-63 q 41,17 67,53 26,36 27,80 l -41,14 40,12 q -4,41 -30,74 -26,33 -64,48 z"
       id="path6"
       inkscape:connector-curvature="0"
       style="fill:#000000;fill-opacity:1" />
  </g>
</svg>
