<?xml version="1.0" encoding="UTF-8" standalone="no"?>
<svg
   xmlns:dc="http://purl.org/dc/elements/1.1/"
   xmlns:cc="http://creativecommons.org/ns#"
   xmlns:rdf="http://www.w3.org/1999/02/22-rdf-syntax-ns#"
   xmlns:svg="http://www.w3.org/2000/svg"
   xmlns="http://www.w3.org/2000/svg"
   xmlns:sodipodi="http://sodipodi.sourceforge.net/DTD/sodipodi-0.dtd"
   xmlns:inkscape="http://www.inkscape.org/namespaces/inkscape"
   viewBox="0 -200 1000 1000"
   id="svg2"
   version="1.1"
   inkscape:version="0.91 r13725"
   sodipodi:docname="asterisk_xwing-miniatures.svg">
  <metadata
     id="metadata12">
    <rdf:RDF>
      <cc:Work
         rdf:about="">
        <dc:format>image/svg+xml</dc:format>
        <dc:type
           rdf:resource="http://purl.org/dc/dcmitype/StillImage" />
        <dc:title></dc:title>
      </cc:Work>
    </rdf:RDF>
  </metadata>
  <defs
     id="defs10" />
  <sodipodi:namedview
     pagecolor="#ffffff"
     bordercolor="#666666"
     borderopacity="1"
     objecttolerance="10"
     gridtolerance="10"
     guidetolerance="10"
     inkscape:pageopacity="0"
     inkscape:pageshadow="2"
     inkscape:window-width="1920"
     inkscape:window-height="1016"
     id="namedview8"
     showgrid="false"
     inkscape:zoom="0.236"
     inkscape:cx="508.47458"
     inkscape:cy="491.52542"
     inkscape:window-x="0"
     inkscape:window-y="27"
     inkscape:window-maximized="1"
     inkscape:current-layer="svg2" />
  <g
     transform="matrix(1,0,0,-1,1.5,583.5)"
     id="g4"
     style="fill:#000000;fill-opacity:1">
    <path
       d="m 497,752 q 98,0 183.5,-37 Q 766,678 830,614 894,550 930.5,464 967,378 967,281 967,185 930.5,100 894,15 830,-48.5 766,-112 680.5,-148.5 595,-185 497,-185 q -97,0 -182,36.5 -85,36.5 -148.5,100 Q 103,15 66.5,100 30,185 30,281 q 0,97 36.5,183 36.5,86 100,150 63.5,64 148.5,101 85,37 182,37 z M 783,-45 q 18,13 32,28 14,15 28,32 l -11,35 35,61 36,9 q 5,8 8,17.5 3,9.5 6,18.5 l -39,-11 -26,64 29,51 43,-3 8,-31 q 3,27 3,55 0,30 -3,51 l -8,-35 -43,-4 -29,53 26,63 42,-13 q -4,13 -8,25.5 -4,12.5 -9,25.5 l -36,8 -35,61 11,34 q -14,17 -28,32.5 -14,15.5 -32,28.5 l 31,-47 -14,-33 -64,12 -28,54 20,34 52,-13 Q 756,636 730.5,652.5 705,669 675,683 l 27,-36 -22,-32 -67,7 -39,50 28,33 14,-2 q -13,4 -27.5,7.5 Q 574,714 560,715 l -25,-27 -71,0 -24,27 Q 424,714 409.5,710.5 395,707 381,703 l 15,2 27,-33 -39,-50 -67,-7 -22,32 29,36 Q 294,669 267.5,652.5 241,636 217,618 l 53,13 21,-34 -29,-54 -65,-12 -14,33 31,47 Q 197,598 182.5,583 168,568 154,551 l 13,-35 -35,-61 -38,-8 Q 89,434 85.5,421.5 82,409 77,396 l 43,13 27,-63 -30,-53 -43,4 -9,35 q -1,-11 -2,-24 -1,-13 -1,-27 0,-13 1,-27 l 2,-28 9,31 43,3 30,-51 -27,-64 -39,11 q 2,-9 5.5,-18.5 Q 90,128 94,120 l 38,-9 35,-61 -13,-35 Q 168,-2 182.5,-17.5 197,-33 214,-45 l -31,47 14,33 65,-11 29,-55 -21,-33 -53,13 Q 241,-70 267.5,-86.5 294,-103 324,-117 l -29,36 22,31 67,-6 39,-50 -27,-33 -15,2 q 26,-8 59,-13 l 24,29 71,0 25,-28 q 14,2 28.5,4.5 14.5,2.5 27.5,7.5 l -14,-2 -28,33 39,50 67,6 22,-31 -27,-36 q 30,14 55.5,30.5 Q 756,-70 780,-51 l -52,-13 -20,33 28,55 64,11 14,-33 z m -209,320 -36,-64 -78,0 -37,64 37,67 78,0 z m -36,108 -77,0 -38,59 38,60 77,0 36,-60 z m -77,168 -38,46 38,47 77,0 36,-47 -36,-46 -77,0 z m 77,-549 36,-47 -36,-47 -77,0 -38,47 38,47 77,0 z m -355,368 -22,57 39,67 59,8 21,-55 -38,-66 z M 836,124 799,59 739,49 l -19,57 37,66 59,8 z m -594,48 38,-66 -21,-57 -59,10 -39,65 22,56 z m 515,209 -37,64 19,57 60,-8 37,-67 -20,-57 z m -296,-207 77,0 36,-58 -36,-60 -77,0 -38,60 z m -141,121 -33,62 40,66 69,1 32,-60 -38,-66 z m 358,-33 34,-61 -40,-66 -69,-4 -32,63 38,64 z m -351,-127 -40,64 33,63 70,-4 38,-64 -32,-63 z m 282,163 -38,66 32,60 69,-1 40,-66 -34,-62 z m -38,235 38,46 63,-6 40,-54 -28,-53 -75,0 z m -257,-67 -22,56 38,53 66,4 32,-48 -38,-65 -76,0 z m -65,-124 38,-67 -38,-64 -60,8 -28,59 28,61 z m 186,-320 -38,-48 -63,5 -39,55 26,53 76,0 z m 249,66 24,-56 -39,-53 -66,-5 -32,50 38,64 75,0 z m 71,124 -36,66 36,68 61,-10 27,-59 -29,-62 z"
       id="path6"
       inkscape:connector-curvature="0"
       style="fill:#000000;fill-opacity:1" />
  </g>
</svg>
