<?xml version="1.0" encoding="UTF-8" standalone="no"?>
<svg
   xmlns:dc="http://purl.org/dc/elements/1.1/"
   xmlns:cc="http://creativecommons.org/ns#"
   xmlns:rdf="http://www.w3.org/1999/02/22-rdf-syntax-ns#"
   xmlns:svg="http://www.w3.org/2000/svg"
   xmlns="http://www.w3.org/2000/svg"
   xmlns:sodipodi="http://sodipodi.sourceforge.net/DTD/sodipodi-0.dtd"
   xmlns:inkscape="http://www.inkscape.org/namespaces/inkscape"
   viewBox="0 -267 1000 1000"
   id="svg2"
   version="1.1"
   inkscape:version="0.91 r13725"
   sodipodi:docname="greater_xwing-miniatures (copy).svg">
  <metadata
     id="metadata12">
    <rdf:RDF>
      <cc:Work
         rdf:about="">
        <dc:format>image/svg+xml</dc:format>
        <dc:type
           rdf:resource="http://purl.org/dc/dcmitype/StillImage" />
      </cc:Work>
    </rdf:RDF>
  </metadata>
  <defs
     id="defs10" />
  <sodipodi:namedview
     pagecolor="#ffffff"
     bordercolor="#666666"
     borderopacity="1"
     objecttolerance="10"
     gridtolerance="10"
     guidetolerance="10"
     inkscape:pageopacity="0"
     inkscape:pageshadow="2"
     inkscape:window-width="1920"
     inkscape:window-height="1016"
     id="namedview8"
     showgrid="false"
     inkscape:zoom="0.3337544"
     inkscape:cx="533.5407"
     inkscape:cy="615.2618"
     inkscape:window-x="0"
     inkscape:window-y="27"
     inkscape:window-maximized="1"
     inkscape:current-layer="svg2" />
  <circle
     style="opacity:0.97000002;fill:#000000;fill-opacity:1"
     id="path4134"
     cx="500"
     cy="233"
     r="500" />
  <g
     id="g4215"
     transform="matrix(0.86956522,0,0,0.86956522,-83.290671,34.219129)">
    <path
       id="path4205"
       d="m 833.86839,384.82853 q -5.60748,8.41121 -25.23365,1.86916 -9.34579,-2.80374 -20.56075,-9.3458 -9.34579,-4.6729 -28.03738,-18.69159 -8.41121,-5.60747 -17.75701,-13.08411 -9.34579,-7.47664 -20.56075,-16.82243 Q 700.22353,310.99675 674.0553,283.89395 641.34502,251.18367 612.84035,219.87525 584.33568,188.56684 558.16745,158.6603 531.99923,128.75376 509.10203,102.11825 486.20483,75.482736 467.51325,53.052829 446.01792,25.950025 425.92446,1.6509602 405.831,-22.648106 388.07399,-46.012592 q 48.59813,34.57944 101.86916,76.635515 45.79439,35.514018 106.54206,86.915887 59.81308,50.46729 126.16822,112.14953 13.08411,14.01869 24.76636,26.16822 11.68224,12.14954 21.96261,23.36449 10.28038,10.28037 17.75701,19.62617 7.47664,9.34579 14.0187,16.82243 6.54205,7.47663 11.21495,14.48598 4.6729,7.00934 9.34579,12.61682 3.73832,5.60748 6.54206,10.28038 2.80374,4.67289 4.6729,8.41121 8.41121,17.75701 0.93458,23.36449 z"
       style="fill:#ff0000;fill-opacity:1"
       inkscape:connector-curvature="0" />
    <path
       id="path4203"
       d="m 887.13941,502.58554 q -6.54205,0.93458 -13.08411,0.46729 -6.54205,-0.46729 -14.01869,-1.40187 -7.47664,-0.93458 -14.01869,-1.86916 -6.54206,-0.93458 -14.01869,-2.80374 -27.10281,-6.54206 -33.64486,-7.47664 -8.41122,-0.93458 -36.4486,-11.21495 -0.93458,0 -13.08411,-5.60748 -11.21496,-3.73831 -30.84112,-14.01869 -9.3458,-4.6729 -19.62617,-9.34579 -10.28038,-4.6729 -21.49533,-9.3458 l -47.66355,-22.4299 q -57.94393,-26.16823 -128.97196,-61.68225 5.60747,0.93458 11.21495,1.40187 5.60748,0.46729 13.08411,1.40187 5.60748,0.93458 11.21495,1.40187 5.60748,0.46729 13.08412,1.40187 l 27.1028,0 q 8.41122,0.93458 14.95327,0.93458 14.95327,0 14.95327,-5.60748 0,-0.93458 -0.93458,-2.80374 -5.60747,-11.21495 -42.99065,-37.38317 -16.82243,-11.21496 -41.1215,-32.71028 -11.21495,-10.28038 -22.4299,-21.02804 -11.21496,-10.74766 -21.49533,-21.02804 -12.14953,-13.08411 -23.83178,-25.70093 -11.68224,-12.61683 -24.76635,-25.70094 7.47663,6.54206 20.56075,14.95327 5.60747,3.73832 13.08411,7.94393 7.47663,4.20561 16.82243,8.8785 l 20.56075,10.28038 25.23364,12.14953 q 7.47664,3.73832 12.61682,6.07477 5.14019,2.33645 9.81309,4.2056 9.34579,4.6729 13.08411,4.6729 3.73832,0.93458 5.60748,-0.93458 0.93458,-0.93458 0.93458,-3.73832 -2.80374,-4.67289 -4.6729,-7.47663 -3.73832,-6.54206 -8.41122,-11.21495 L 388.07399,66.136941 442.2796,114.73507 496.48521,163.3332 q 1.86916,1.86916 22.4299,21.49533 12.14954,10.28037 25.23365,21.49532 13.08411,10.28038 25.23364,21.49533 12.14954,11.21495 25.23365,22.42991 13.08411,11.21495 24.76635,21.96261 11.68225,10.74767 23.83178,21.02804 24.29907,20.56075 44.85981,39.25234 80.37384,71.96261 129.90655,96.26168 24.29906,12.14953 39.25233,12.14953 14.95327,-0.93458 21.49533,-10.28037 3.73832,-5.60748 -4.6729,-26.16823 -4.6729,-10.28037 -10.74766,-21.49532 -6.07477,-11.21496 -14.48598,-25.23365 -15.88785,-28.03738 -38.31776,-59.81308 -11.21495,-15.88785 -22.42991,-32.71028 -11.21495,-16.82243 -23.36448,-32.71028 -27.10281,-39.25234 -59.3458,-81.7757 -32.24299,-42.52336 -68.69159,-90.186916 31.77571,27.102804 58.87851,50.467286 6.54206,5.60748 12.14953,10.74767 5.60748,5.14019 12.14953,10.74766 5.60748,5.60747 11.21496,10.74766 5.60747,5.14019 11.21495,10.74766 5.60748,4.6729 10.28037,9.3458 l 9.3458,9.34579 14.95327,14.95327 q 5.60748,5.60748 8.41122,-2.80373 4.67289,-8.41122 5.60747,-18.69159 1.86916,-7.47664 2.80374,-15.42056 0.93458,-7.94393 1.86916,-17.28972 11.21495,22.4299 21.96262,42.52336 10.74766,20.09346 21.02803,37.85047 6.54206,14.01869 15.88785,29.90654 4.6729,7.47664 8.41122,13.5514 3.73832,6.07477 6.54205,11.68225 3.73832,5.60747 6.54206,10.28037 2.80374,4.6729 5.60748,7.47663 6.54205,6.54206 6.54205,7.47664 0.93458,5.60748 8.41122,-12.14953 2.80374,-8.41122 6.54205,-27.10281 2.80374,-14.95327 2.80374,-17.75701 0.93458,-10.28037 1.86916,-21.49532 11.21496,24.29906 18.69159,46.72897 6.54206,17.75701 14.01869,43.92523 13.08411,44.85982 13.08411,76.63552 l 0,8.41121 0,6.54206 0,5.60747 0,3.73832 0,2.80374 q 0,6.54206 -2.80373,24.29907 -8.41122,52.33645 -63.55141,68.2243 z"
       style="fill:#ff0000;fill-opacity:1"
       inkscape:connector-curvature="0" />
  </g>
</svg>
