<?xml version="1.0" encoding="UTF-8" standalone="no"?>
<svg
   xmlns:dc="http://purl.org/dc/elements/1.1/"
   xmlns:cc="http://creativecommons.org/ns#"
   xmlns:rdf="http://www.w3.org/1999/02/22-rdf-syntax-ns#"
   xmlns:svg="http://www.w3.org/2000/svg"
   xmlns="http://www.w3.org/2000/svg"
   xmlns:sodipodi="http://sodipodi.sourceforge.net/DTD/sodipodi-0.dtd"
   xmlns:inkscape="http://www.inkscape.org/namespaces/inkscape"
   viewBox="0 -200 1000 1000"
   id="svg2"
   version="1.1"
   inkscape:version="0.91 r13725"
   sodipodi:docname="ampersand_xwing-miniatures.svg">
  <metadata
     id="metadata12">
    <rdf:RDF>
      <cc:Work
         rdf:about="">
        <dc:format>image/svg+xml</dc:format>
        <dc:type
           rdf:resource="http://purl.org/dc/dcmitype/StillImage" />
        <dc:title />
      </cc:Work>
    </rdf:RDF>
  </metadata>
  <defs
     id="defs10" />
  <sodipodi:namedview
     pagecolor="#ffffff"
     bordercolor="#666666"
     borderopacity="1"
     objecttolerance="10"
     gridtolerance="10"
     guidetolerance="10"
     inkscape:pageopacity="0"
     inkscape:pageshadow="2"
     inkscape:window-width="1920"
     inkscape:window-height="1016"
     id="namedview8"
     showgrid="false"
     inkscape:zoom="0.236"
     inkscape:cx="-435.40018"
     inkscape:cy="-144.27402"
     inkscape:window-x="0"
     inkscape:window-y="27"
     inkscape:window-maximized="1"
     inkscape:current-layer="svg2" />
  <circle
     style="opacity:0.97000002;fill:#000000;fill-opacity:1"
     id="path4134"
     cx="500"
     cy="300"
     r="500" />
  <g
     transform="matrix(0.74788578,0,0,-0.74788578,176.16546,521.37419)"
     id="g4"
     style="fill:#fefc1b;fill-opacity:1;stroke:none">
    <path
       d="m 805,649 0,-80 31,0 0,-547 -31,0 0,-79 31,0 0,-126 -127,0 0,31 -79,0 0,-31 -394,0 0,31 -79,0 0,-31 -127,0 0,126 29,0 0,79 -29,0 0,547 29,0 0,80 -29,0 0,126 127,0 0,-29 79,0 0,29 394,0 0,-29 79,0 0,29 127,0 0,-126 -31,0 z m -622,-257 84,-80 0,57 -31,23 -53,0 z m 84,50 0,60 -31,25 -53,0 z m -84,-176 84,-84 0,54 -31,30 -53,0 z M 108,740 Q 91,740 78.5,727.5 66,715 66,697 66,679 78.5,667 91,655 108,655 q 14,0 25.5,11.5 Q 145,678 145,697 145,715 133.5,727.5 122,740 108,740 Z m 0,-887 q 14,0 25.5,13 11.5,13 11.5,29 0,20 -11.5,31 Q 122,-63 108,-63 91,-63 78.5,-73.5 66,-84 66,-105 q 0,-16 12.5,-29 12.5,-13 29.5,-13 z m 55,740 -31,0 0,-592 31,0 0,592 z m 20,-453 84,-86 0,55 -31,31 -53,0 z m 489,-164 -479,0 0,-33 479,0 0,33 z m -277,206 0,54 -31,30 -55,0 z m 0,-73 -31,31 -55,0 86,-86 0,55 z m 0,200 0,60 -31,23 -55,0 z m 0,133 0,60 -31,25 -55,0 z m -43,151 -56,0 -29,-29 0,-54 z m -85,-157 0,-52 85,83 -56,-6 z m 0,-127 0,-60 85,84 -56,0 z m 0,-134 0,-55 85,87 -56,0 z m 0,-126 0,-56 85,85 -56,-3 z m 254,133 0,54 -24,30 -60,0 z m 0,-73 -24,31 -60,0 84,-86 0,55 z m 0,200 0,60 -24,23 -60,0 z m 0,133 0,60 -24,25 -60,0 z m -35,151 -58,0 -28,-29 0,-54 z m -86,-157 0,-52 86,83 -58,-6 z m 0,-127 0,-60 86,84 -58,0 z m 0,-134 0,-55 86,87 -58,0 z m 0,-126 0,-56 86,85 -58,-3 z m 254,133 0,54 -30,30 -55,0 z m 0,-73 -30,31 -55,0 85,-86 0,55 z m 0,200 0,60 -30,23 -55,0 z m 0,133 0,60 -30,25 -55,0 z m -36,151 -54,0 -31,-29 0,-54 z m -85,-157 0,-52 85,83 -54,-6 z m 0,-127 0,-60 85,84 -54,0 z m 0,-134 0,-55 85,87 -54,0 z m 0,-126 0,-56 85,85 -54,-3 z m 139,600 -479,0 0,-33 479,0 0,33 z m 60,-648 0,592 -29,0 0,-592 29,0 z m 24,-148 q 19,0 30.5,13 11.5,13 11.5,29 0,20 -11,31 -11,11 -31,11 -14,0 -25,-10.5 -11,-10.5 -11,-31.5 0,-16 11,-29 11,-13 25,-13 z m 0,802 q 19,0 30.5,11.5 11.5,11.5 11.5,30.5 0,18 -11,30.5 -11,12.5 -31,12.5 -14,0 -25,-12.5 -11,-12.5 -11,-30.5 0,-18 11,-30 11,-12 25,-12 z"
       id="path6"
       inkscape:connector-curvature="0"
       style="fill:#fefc1b;fill-opacity:1;stroke:none" />
  </g>
</svg>
